<?xml version="1.0" standalone="no"?>
<svg version="1.1" id="color_x5F_1" xmlns="http://www.w3.org/2000/svg" xmlns:xlink="http://www.w3.org/1999/xlink" x="0px" y="0px" width="600px" height="600px" viewBox="0 0 600 600" enable-background="new 0 0 600 600" xml:space="preserve">
<path id="color_x5F_11" fill="#f2f7f7" d="M323.534,172.249c0.101,0,0.202-0.101,0.202-0.101v17.235v21.065l-18.344-10.482
	l-27.113-15.622l0,0c0.605,0.101,2.217,0.302,4.334,0.504c0.202,0,0.504,0,0.706,0.101c0.101,0,0.202,0,0.302,0
	c1.713,0.101,3.628,0.302,5.543,0.302c0.101,0,0.101,0,0.202,0c0.403,0,0.907,0,1.31,0h0.101c-0.202,0-0.302,0-0.504,0
	c1.209,0.807,2.52,1.713,4.032,2.923c8.466,6.552,8.466,2.621,13.506,7.358c5.14,4.636,10.481,9.071,12.497,5.543
	c2.017-3.528,0.403-14.917,0.807-20.158c0.101-2.217-0.101-4.334-0.403-6.854c0.303-0.202,0.504-0.302,0.504-0.302
	s-0.101-0.202-0.101-0.605c0,0,0.604-0.201,1.512-0.604l0,0c0.102,0,0.202-0.101,0.303-0.101s0.101-0.101,0.201-0.101
	C323.333,172.35,323.434,172.35,323.534,172.249z M292.189,185.251c0.202,0,0.504,0,0.706,0c0,0,0,0,0.101,0
	c-0.706,0-1.31,0-2.016,0c0.101,0,0.202,0,0.302,0C291.584,185.251,291.887,185.251,292.189,185.251z M334.924,113.892
	c0,0-11.188,8.164-11.188,45.859v1.008l0,0c0,0,0,0,0,0.101c0,0.604-0.102,1.31-0.202,2.016c-0.302,1.713-4.535,4.636-4.535,4.636
	s0.403-0.302,1.008-0.706c-0.202-2.117-0.303-4.536-0.303-7.357c0-11.49-0.705-8.769,0-17.336c0.706-8.466-8.769-2.318-12.599-9.071
	s-4.133-11.087-2.217-15.925c2.016-4.838,3.931-12.8-5.342-10.784c-9.272,2.117-2.621,6.249-12.498,1.613
	c-9.776-4.637-12.397,6.652-12.8,12.296c-0.504,5.644,1.814,7.861-0.907,14.715c-2.722,6.854-2.117,15.018-2.217,19.15
	c-0.101,4.132,2.923,7.156,2.217,11.086c-0.202,1.613,0,4.132,0.706,6.753c4.838,0.403,11.188,0.907,16.126,1.311l0,0
	c-7.055-0.504-17.235-1.311-21.267-1.814c-0.403,0-0.806-0.101-1.108-0.101v-21.771c0,0,1.008-50.798,19.553-61.482
	C287.25,88.09,310.734,111.977,334.924,113.892z M323.333,129.615c0,0-3.729-4.838-3.528-5.04c-0.201-0.604,1.21-7.458,1.21-7.458
	l-4.938,6.148l-5.544-2.923l4.334,6.249c0,0-1.411,6.854-1.31,6.45c0.201-0.403,4.535-5.846,4.535-5.846L323.333,129.615z"></path>
<path id="color_x5F_10" fill="#faffff" d="M219.419,298.438l39.711,22.878l-6.249,3.629l-40.82-23.584
	c1.512-1.613,2.721-3.327,3.528-5.141L219.419,298.438z M420.695,182.328l-19.251-11.188l-29.329,17.033l58.86,33.966l4.536-2.621
	l24.895-14.312L420.695,182.328z M185.352,312.75l44.347,25.601l16.025-9.272l-39.711-22.98
	C200.571,309.424,193.415,311.843,185.352,312.75z M177.49,308.719c-21.669,0-39.207-10.08-39.207-22.477c0-0.101,0-0.302,0-0.403
	c0.403-12.195,17.739-22.073,39.207-22.073c5.04,0,9.777,0.504,14.211,1.512c14.615,3.226,24.996,11.389,24.996,20.964
	C216.697,298.639,199.16,308.719,177.49,308.719z M212.464,286.242c0-11.087-15.723-20.057-34.974-20.057
	c-19.352,0-35.075,8.97-35.075,20.057s15.723,20.057,35.075,20.057S212.464,297.329,212.464,286.242z"></path>
<path id="color_x5F_9" fill="#008077" d="M575.206,327.465v18.747L259.13,529.145L9.676,384.109v-14.313L259.23,513.623
	L575.206,327.465z M173.459,268.705c-4.737,0.403-9.172,1.31-13.002,2.822v29.532c3.83,1.41,8.265,2.418,13.002,2.822V268.705z
	 M193.213,271.023c-3.931-1.31-8.265-2.117-13.001-2.419v35.277c4.737-0.202,9.171-1.109,13.001-2.42V271.023z"></path>
<path id="color_x5F_8" fill="#008077" d="M268.1,283.017c0.403,3.125-7.357,8.265-9.272,8.668c-2.016,0.403-6.451,1.108-7.66-1.411
	c-1.209-2.52,0-5.947,0-5.947s1.31,2.722,4.032,2.822c2.822,0.101,5.846-4.939,5.846-4.939l0.202-0.604
	C261.247,281.505,267.798,279.893,268.1,283.017z M293.902,290.072c-0.807,0.101-1.411,0.302-1.915,0.403
	c-0.101,1.209-0.706,3.427-2.621,4.334h-0.101c-0.202,0.101-0.303,0.101-0.504,0.201h-0.101c-0.202,0-0.403,0.101-0.706,0.101
	s-0.504,0-0.806,0c-0.101,0-0.202,0-0.302,0c-0.101,0-0.303,0-0.403-0.101c-0.101,0-0.202,0-0.302-0.101
	c-0.101,0-0.202-0.101-0.303-0.101c-0.101,0-0.201-0.101-0.201-0.101c-0.101-0.101-0.202-0.101-0.303-0.202
	c0,0-0.101-0.101-0.201-0.101c-0.303-0.202-0.605-0.403-0.807-0.706l-0.101-0.101c-0.101-0.101-0.101-0.201-0.202-0.201
	c-0.101-0.101-0.101-0.101-0.202-0.202c0,0,0,0,0-0.101c0-0.101-0.101-0.101-0.101-0.202c-0.202,0.706-1.008,3.628,0.101,5.846
	c1.109,2.52,5.645,1.814,7.66,1.411c1.915-0.403,9.776-5.543,9.272-8.667C300.353,288.561,293.902,290.072,293.902,290.072z
	 M283.924,163.48l-1.512-0.604l-1.512,7.156l-2.923-0.604l1.512-7.761l-3.326-1.411l2.822-12.8l-5.745-5.241l2.016-2.217
	l4.636,4.233l3.83-12.196l-8.769-5.644l1.613-2.52l8.063,5.241l1.209-4.031l0.504-0.706c0,0,0.504-0.403,1.21-1.008l-9.475-8.869
	l2.016-2.117l9.877,9.172c4.333-3.427,11.188-8.87,12.296-10.079l2.117,2.016c-0.605,0.705-3.023,2.62-5.746,4.838v8.265
	l5.947,10.684l-2.621,1.411l-6.147-10.986l-0.202-0.706v-6.249c-3.125,2.52-6.148,4.938-7.156,5.745l-1.512,4.939l2.721,5.745
	l5.947,10.885l5.845-7.66l14.212,6.551l-1.21,2.721l-11.994-5.543l-5.241,6.854l6.249,12.195l12.801-6.652l1.411,2.62
	l-27.516,14.211l0,0c1.613,0.101,3.024,0.202,4.233,0.302c1.612,0.101,2.721,0.202,3.023,0.202l0,0l21.67-6.45l0.101,0.101
	c0,0,0.403-0.302,1.008-0.706c-0.201-2.117-0.302-4.536-0.302-7.357c0-11.49-0.706-8.769,0-17.336
	c0.705-8.466-8.769-2.318-12.599-9.071c-3.831-6.753-4.133-11.087-2.218-15.925c2.016-4.838,3.931-12.8-5.342-10.784
	c-9.272,2.117-2.621,6.249-12.498,1.613c-9.776-4.636-12.397,6.652-12.8,12.296c-0.504,5.644,1.814,7.861-0.907,14.715
	c-2.722,6.854-2.117,15.018-2.218,19.15c-0.101,4.132,2.923,7.156,2.218,11.086c-0.202,1.613,0,4.132,0.705,6.753
	c4.838,0.403,11.188,0.907,16.126,1.311L283.924,163.48z M265.077,332l-5.947-3.426l-6.249-3.629l-40.82-23.584
	c1.512-1.613,2.721-3.327,3.528-5.141c0.806-1.713,1.209-3.628,1.209-5.442v-4.536c0,12.397-17.538,22.477-39.207,22.477
	c-21.67,0-39.208-10.08-39.208-22.477v4.536c0,1.613,0.303,3.225,0.907,4.737c3.024,7.962,13.405,14.413,26.81,16.832
	c3.628,0.604,7.458,1.008,11.49,1.008c2.721,0,5.342-0.202,7.861-0.504c8.063-0.907,15.219-3.326,20.662-6.651l39.711,22.979
	l13.405,7.761l2.419,1.411C263.968,339.358,267.294,333.513,265.077,332z M313.557,132.941c0.201-0.403,4.535-5.846,4.535-5.846
	l5.141,2.52c0,0-3.729-4.838-3.528-5.04c-0.201-0.604,1.21-7.458,1.21-7.458l-4.938,6.148l-5.544-2.923l4.334,6.249
	C314.866,126.491,313.455,133.345,313.557,132.941z M300.857,164.388l-6.25-12.296l-1.814,0.202v7.257l-5.745,3.225l4.133,6.652
	L300.857,164.388z M321.317,180.917c0.101-2.217-0.102-4.334-0.403-6.854l0,0c-0.605,0.302-1.613,0.806-2.822,1.411
	c0.101,0,0.101-0.101,0.201-0.101l1.512,0.101l-1.31,23.484l-2.923-0.202l1.31-22.577c-2.52,1.209-5.644,2.822-8.769,4.233
	c0.102,0,0.202-0.101,0.303-0.101h1.512v9.978l3.729,3.528l-2.016,2.217l-4.737-4.435v-10.583c-2.218,1.008-4.334,2.016-6.148,2.621
	c0,0,0,0-0.101,0c-0.202,0.101-0.403,0.101-0.605,0.201c0,0-0.101,0-0.101,0.101c-0.202,0.101-0.302,0.101-0.504,0.202
	c-0.101,0-0.101,0.101-0.202,0.101c-0.101,0-0.202,0.101-0.302,0.101c-0.202,0.101-0.403,0.101-0.504,0.201
	c-0.302,0.101-0.604,0.202-0.907,0.202c-0.202,0-0.403,0.101-0.504,0.101c-0.101,0-0.303,0-0.403,0.101
	c-0.706,0.101-1.512,0.202-2.419,0.202c-0.202,0-0.302,0-0.504,0c-0.101,0-0.302,0-0.403,0h-0.101c-0.806,0-1.713,0-2.52,0
	c1.21,0.806,2.52,1.713,4.032,2.923c8.466,6.551,8.466,2.621,13.506,7.357c5.14,4.637,10.481,9.071,12.497,5.543
	C322.526,197.648,320.914,186.259,321.317,180.917z M279.489,158.542l2.318,1.008l2.923,1.109l4.938-2.822v-5.241l-1.512,0.101
	l-0.907-0.202l-5.745-3.326L279.489,158.542z M292.995,149.27l-5.946-10.785v-0.101l-1.411-2.923l-3.326,10.785l6.047,3.528
	L292.995,149.27z"></path>
<path id="color_x5F_7" fill="#ff75c3" d="M319.704,175.475l-1.31,23.484l-2.923-0.202l1.31-22.577l0,0
	c0.504-0.202,0.907-0.403,1.311-0.605c0.101,0,0.101-0.101,0.201-0.101H319.704z M309.727,180.313h-1.512
	c-0.102,0-0.202,0.101-0.303,0.101c-0.403,0.202-0.807,0.403-1.21,0.504l0,0V191.5l4.737,4.435l2.016-2.217l-3.729-3.527V180.313z
	 M317.588,159.046l-27.516,14.211l0,0l0,0h-0.101l0,0l0,0l-6.047-9.877l-1.512-0.605l-1.512,7.156l-2.923-0.605l1.512-7.761
	l-3.326-1.31l2.822-12.8l-5.745-5.241l2.016-2.217l4.636,4.233l3.83-12.196l-8.769-5.644l1.613-2.52l8.063,5.241l1.209-4.031
	l0.504-0.706c0,0,0.504-0.403,1.21-1.008l-9.475-8.869l2.016-2.117l9.877,9.172c4.333-3.427,11.188-8.87,12.296-10.079l2.117,2.016
	c-0.605,0.705-3.023,2.62-5.746,4.838v8.265l5.947,10.684l-2.621,1.411l-6.147-10.986l-0.202-0.706v-6.249
	c-3.125,2.52-6.148,4.938-7.156,5.745l-1.512,4.939l2.721,5.745l5.947,10.885l5.845-7.66l14.212,6.551l-1.21,2.721l-11.994-5.543
	l-5.241,6.854l6.249,12.195l12.801-6.652L317.588,159.046z M282.312,146.246l6.047,3.528l4.536-0.504l-5.947-10.785v-0.101
	l-1.411-2.923L282.312,146.246z M284.831,160.558l4.939-2.822v-5.241l-1.512,0.101l-0.907-0.202l-5.745-3.326l-2.117,9.272
	l2.318,1.008L284.831,160.558z M300.857,164.388l-6.25-12.296l-1.814,0.202v7.257l-5.745,3.225l4.133,6.652L300.857,164.388z"></path>
<path id="color_x5F_6" fill="#bfd9d7" d="M290.476,294.104c-0.101,0.101-0.202,0.202-0.303,0.302
	C290.274,294.306,290.375,294.205,290.476,294.104z M290.677,293.902c0,0.101-0.101,0.101-0.201,0.202
	C290.576,294.003,290.576,294.003,290.677,293.902z M290.979,293.499c-0.101,0.101-0.202,0.302-0.303,0.403
	C290.778,293.801,290.878,293.6,290.979,293.499z M291.181,293.197c-0.101,0.101-0.101,0.202-0.202,0.302
	C291.08,293.398,291.08,293.297,291.181,293.197z M289.972,294.507c-0.202,0.101-0.403,0.202-0.605,0.303
	C289.669,294.708,289.77,294.608,289.972,294.507z M289.972,294.507c0.101,0,0.101-0.101,0.201-0.101
	C290.072,294.406,290.072,294.507,289.972,294.507z M372.014,188.174l-9.272,15.522l-33.765,56.24l-37.896-20.662
	c-0.907-0.202-1.814-0.302-2.721-0.403l3.729,50.798c0,0,0,1.814-0.806,3.326c0.504-0.907,0.706-1.814,0.706-2.52
	c0.504-0.202,1.108-0.303,1.915-0.403c0,0,6.45-1.613,6.854,1.512s-7.357,8.265-9.272,8.668c-2.016,0.403-6.451,1.109-7.66-1.411
	c-1.008-2.217-0.302-5.14-0.101-5.846c0,0.101,0.101,0.101,0.101,0.202c-0.504-0.806-0.604-1.512-0.604-1.512l-9.979-46.061
	l-12.195,36.284l0.202-0.604c0,0,6.45-1.613,6.854,1.512s-7.357,8.265-9.272,8.668c-2.016,0.403-6.451,1.108-7.66-1.411
	s0-5.947,0-5.947l6.955-34.671c-29.128,19.049-38.703,48.883-38.703,48.883l39.711,22.88v7.155l5.946,3.427
	c2.218,1.613-1.108,7.357-3.527,6.25l-2.419-1.412v43.44l8.769-5.14v7.66l16.529,9.574c-7.761-5.442-12.095-16.227-12.095-29.531
	c0-26.004,15.623-60.676,45.255-79.523l7.055-4.031c28.625-15.824,44.952,0.202,45.456,27.212c0,6.25-0.906,12.902-2.62,19.756l0,0
	l9.575,5.543v-19.553l53.922-89.804v-0.101L372.014,188.174L372.014,188.174z M291.181,293.197c0-0.101,0.101-0.101,0.101-0.202
	C291.181,293.096,291.181,293.197,291.181,293.197z M229.699,435.915v-19.251l-16.731,9.575L229.699,435.915z M177.49,313.254
	c-4.031,0-7.861-0.303-11.49-1.008l-49.286,81.941v19.554l58.962,33.462v-18.948l53.922-89.804v-0.101l-44.348-25.601
	C182.832,313.053,180.212,313.254,177.49,313.254z M460.406,253.889v10.18l3.024-1.713l5.846-3.326L460.406,253.889z
	 M322.93,306.501l-3.527,2.016c-13.707,8.265-23.182,26.911-23.182,40.518c0,13.103,8.567,21.468,23.182,13.708l3.527-2.017
	c14.11-8.567,23.182-26.81,23.182-40.517C346.111,307.207,337.645,298.74,322.93,306.501z M229.699,397.11v-21.871l-20.057,33.462
	L229.699,397.11z M430.976,319.503v-18.948l-16.63,9.574L430.976,319.503z M430.976,281.001V259.13l-20.057,33.361L430.976,281.001z
	"></path>
<path id="color_x5F_5" fill="#FFD2BB" d="M267.898,143.927c-0.202,3.528-0.302,5.645-0.302,5.645l-2.318-1.311
	C265.379,148.261,266.991,144.532,267.898,143.927z M255.501,164.589L255.501,164.589c1.008-1.31,2.217-3.628,1.915-7.156
	c-0.504-5.543-3.024-9.575-3.024-9.575s-4.535,4.334-3.83,6.047c0.706,1.713,1.814,4.132,1.814,4.132s-0.101-0.303-2.117-1.209
	c-2.016-0.907-3.125,1.31-1.512,3.326c1.613,2.016,3.83,1.814,3.83,1.814l-2.117,0.403l3.931,3.427
	C254.393,165.698,254.896,165.396,255.501,164.589z M243.306,167.411v3.125l0,0v2.116c0,0,1.714,1.008,5.846,1.209
	c4.031,0.202,8.265-3.931,8.265-3.931l-3.024-4.132C254.393,165.698,249.656,168.419,243.306,167.411z M328.372,159.751
	c-1.209-0.806-4.535,0-4.535,0s0,0.403,0,1.008l0,0c0,0,0,0,0,0.101c0,0.504-0.101,1.209-0.202,2.016
	c-0.302,1.713-4.535,4.636-4.535,4.636s0,0,0.101,0.101c0.101,0.101,0.202,0.202,0.303,0.403c0,0.101,0.101,0.101,0.101,0.202
	c0.101,0.101,0.201,0.302,0.303,0.504c0.504,1.008,1.008,2.419,1.31,3.527c0.102,0.504,0.202,0.907,0.303,1.21
	c0,0,0.604-0.202,1.512-0.605l0,0c0.101,0,0.202-0.101,0.303-0.101s0.101-0.101,0.201-0.101s0.101-0.101,0.202-0.101
	c1.612-0.807,3.628-2.016,5.24-3.931C331.497,164.791,329.48,160.558,328.372,159.751z"></path>
<path id="color_x5F_4" fill="#00bdb0" d="M575.206,327.465L259.13,513.623L9.676,369.797l129.515-74.383
	c3.023,7.963,13.405,14.413,26.81,16.832l-49.286,81.941v19.554l58.962,33.462v0.604l37.292-21.468l16.731,9.676l5.645-3.226
	l23.786-13.707v-19.251l8.769-5.141v-11.893l0,0l16.53,9.574c7.861,5.443,19.15,5.645,33.16-2.217l7.056-4.031
	c22.576-14.413,37.09-37.897,42.734-59.869l0,0l9.575,5.543l2.116-1.209l35.176-20.259l16.63,9.373v0.303l29.431-16.933v-19.251
	l8.769-5.04v-12.8L575.206,327.465z M291.08,239.274l37.896,20.662l33.765-56.24l-31.647-18.445l-7.257,4.233v21.065l-18.444-10.583
	l-19.15,10.986l2.016,27.918C289.266,238.972,290.173,239.073,291.08,239.274z M216.697,286.242v4.536
	c0,1.915-0.403,3.729-1.209,5.442l3.83,2.218c0,0,9.676-29.733,38.703-48.883l5.04-25.399L191.5,265.278
	C206.316,268.503,216.697,276.667,216.697,286.242z"></path>
<path id="color_x5F_3" fill="#ff0090" d="M241.189,175.374c-0.807-2.016,2.117-4.637,2.217-4.838l0,0v2.116
	c0,0,1.713,1.008,5.846,1.209c4.032,0.202,8.265-3.931,8.265-3.931l3.528,0.605c0,0-6.249,6.753-9.978,7.156
	C247.237,178.095,241.996,177.39,241.189,175.374z M251.167,284.227c0,0,1.31,2.721,4.032,2.822
	c2.822,0.101,5.846-4.938,5.846-4.938l12.195-36.284l9.979,46.061c0,0,0.101,0.705,0.604,1.512c0,0,0,0,0,0.101
	c0,0.101,0.101,0.101,0.202,0.202s0.101,0.202,0.202,0.202l0.101,0.101c0.202,0.202,0.504,0.504,0.807,0.706
	c0,0,0.101,0.101,0.201,0.101c0.101,0.101,0.202,0.101,0.303,0.202c0.101,0,0.201,0.101,0.201,0.101
	c0.101,0,0.202,0.101,0.303,0.101c0.101,0,0.202,0.101,0.302,0.101s0.302,0,0.403,0.101c0.101,0,0.202,0,0.302,0
	c0.202,0,0.504,0,0.806,0c0.202,0,0.504-0.101,0.706-0.101h0.101c0.201,0,0.302-0.101,0.504-0.202h0.101
	c2.721-1.209,2.621-5.14,2.621-5.14l-3.729-50.798l-2.016-27.919v-0.403v-0.101c-0.101,1.411-0.403,2.621-1.008,3.427
	c-4.032,5.04-14.816,8.668-20.259,1.311l-1.814,8.97l-5.04,25.399L251.167,284.227z M370.2,306.4c0,6.248-0.907,12.9-2.621,19.754
	c-5.644,21.872-20.157,45.457-42.734,59.869l-7.056,4.032c-14.01,7.861-25.398,7.761-33.16,2.218
	c-7.761-5.443-12.095-16.228-12.095-29.531c0-26.004,15.623-60.676,45.254-79.523l7.056-4.032
	C353.368,263.363,369.696,279.389,370.2,306.4z M346.111,320.209c0-13.002-8.567-21.469-23.182-13.708l-3.527,2.016
	c-13.707,8.265-23.182,26.911-23.182,40.518c0,13.103,8.567,21.468,23.182,13.708l3.527-2.017
	C337.04,352.158,346.111,333.916,346.111,320.209z M469.276,258.928v6.753v12.8l-8.769,5.04v19.25l-29.431,16.934v-0.202v-18.948
	l-16.631,9.574l-35.176,20.26l-2.116,1.209v-19.553l53.923-89.804v-0.101l4.535-2.621l24.896-14.312v48.681v10.18l3.023-1.713
	L469.276,258.928z M430.976,259.23l-20.057,33.361l20.057-11.591V259.23z M259.13,380.178l8.769-5.141v7.66v11.894l-8.769,5.141
	v19.251l-23.786,13.707l-5.645,3.226v-19.251l-16.731,9.575l-37.292,21.468v-0.604v-18.948l53.922-89.804v-0.101l16.025-9.273
	l13.405,7.762v43.439H259.13z M229.699,375.34l-20.057,33.361l20.057-11.591V375.34z M177.49,306.299
	c-19.352,0-35.075-8.97-35.075-20.057s15.723-20.057,35.075-20.057s34.974,8.97,34.974,20.057S196.842,306.299,177.49,306.299z
	 M180.212,303.881c4.737-0.202,9.171-1.109,13.001-2.42v-30.438c-3.931-1.31-8.265-2.117-13.001-2.419V303.881z M173.459,268.705
	c-4.737,0.403-9.172,1.31-13.002,2.822v29.532c3.83,1.41,8.265,2.418,13.002,2.822V268.705z"></path>
<path id="color_x5F_2" fill="#008077" d="M240.484,157.433c-0.403,0-0.806,0-1.109,0c-0.101,0-0.202,0-0.302,0
	c-0.302,0-0.504,0-0.806-0.101c-0.101,0-0.202,0-0.303,0c-0.302,0-0.504-0.101-0.806-0.101c-0.101,0-0.202,0-0.202,0
	c-0.302-0.101-0.604-0.101-0.907-0.201c0,0,0,0-0.101,0c-4.032-1.21-6.451-4.133-6.854-7.358
	c-0.403-4.334,0.403-10.583,7.962-13.808c7.559-3.125,8.265,1.613,9.776,0.806c1.512-0.806,2.318-4.031,4.737-3.83
	c2.419,0.201,8.97,4.737,9.373,9.474c0.403,4.636-6.551,5.846-6.551,5.846C251.268,149.874,247.136,157.433,240.484,157.433z
	 M321.216,173.257c-0.101-0.302-0.201-0.706-0.302-1.209c-0.303-1.109-0.706-2.52-1.311-3.528c-0.101-0.202-0.201-0.302-0.303-0.504
	c0-0.101-0.101-0.101-0.101-0.202c-0.101-0.101-0.201-0.302-0.302-0.403l-0.102-0.101l-21.669,6.451l0,0
	c-0.202,0-1.31-0.101-3.023-0.202c-1.209-0.101-2.621-0.202-4.233-0.302h-0.101l0,0c-7.055-0.504-17.235-1.311-21.267-1.814
	c-0.504-0.101-1.008-0.101-1.311-0.202c0.101,0,0.101,0,0.202,0v-21.771l-2.318-1.31c0,0-2.419,10.986-4.334,13.103
	c-1.915,2.016-5.443,3.225-5.543,3.225l0,0c-0.605,0.807-1.109,1.109-1.109,1.109l3.024,4.132l3.527,0.605
	c0,0-6.249,6.752-9.978,7.156s-8.97-0.201-9.776-2.318c0,0,1.612,6.954,8.97,18.343c4.938,7.761,11.288,16.53,14.917,21.569
	c5.443,7.458,16.228,3.729,20.259-1.311c0.605-0.806,0.907-2.016,1.008-3.427v0.101c0.303-8.567-8.164-26.306-8.164-26.306
	s0.101,0,0.403,0l0,0c0.605,0.101,2.217,0.302,4.334,0.504c0.202,0,0.504,0,0.706,0.101c0.101,0,0.202,0,0.302,0
	c1.713,0.101,3.628,0.303,5.543,0.303c0.101,0,0.101,0,0.202,0c0.403,0,0.907,0,1.311,0c0.101,0,0.302,0,0.403,0
	c0.302,0,0.605,0,0.907,0c0.202,0,0.504,0,0.706,0c0.101,0,0.101,0,0.202,0c0.101,0,0.302,0,0.403,0c0.202,0,0.303,0,0.504,0
	c0.806-0.101,1.612-0.101,2.419-0.202c0.101,0,0.302,0,0.403-0.101c0.202,0,0.403-0.101,0.504-0.101
	c0.302-0.101,0.605-0.101,0.907-0.202c0.202-0.101,0.302-0.101,0.504-0.202c0.101,0,0.202-0.101,0.302-0.101
	c0.101,0,0.101-0.101,0.202-0.101c0.101-0.101,0.302-0.101,0.504-0.202c0,0,0.101,0,0.101-0.101
	c0.202-0.101,0.403-0.101,0.604-0.202c0,0,0,0,0.101,0c1.713-0.706,3.83-1.613,6.148-2.621l0,0c0.403-0.201,0.807-0.403,1.21-0.504
	c3.124-1.411,6.248-3.023,8.769-4.233l0,0c0.504-0.202,0.907-0.403,1.31-0.605c1.311-0.604,2.318-1.108,2.822-1.411l0,0
	c0.303-0.201,0.504-0.302,0.504-0.302S321.317,173.56,321.216,173.257z"></path>
<path id="color_x5F_1_1_" fill="#394450" d="M252.579,161.868c0,0-2.117,0.201-3.83-1.814c-1.613-2.016-0.504-4.233,1.512-3.326
	c2.016,0.907,2.117,1.209,2.117,1.209s-1.109-2.419-1.814-4.132c-0.706-1.713,3.83-6.047,3.83-6.047
	c-3.125,2.016-7.257,9.474-13.808,9.474c-0.403,0-0.806,0-1.108,0c-0.101,0-0.202,0-0.303,0c-0.302,0-0.504,0-0.806-0.101
	c-0.101,0-0.202,0-0.302,0c-0.302,0-0.504-0.101-0.807-0.101c-0.101,0-0.201,0-0.201,0c-0.303-0.101-0.605-0.101-0.907-0.202
	c0,0,0,0-0.101,0c-3.225-1.008-5.442-3.024-6.35-5.443c1.109,3.931,4.132,13.002,10.381,15.219
	c7.962,2.822,14.413-0.806,14.413-0.806l-3.931-3.427L252.579,161.868z"></path>
</svg>