<?xml version="1.0" encoding="UTF-8" standalone="no"?> <!-- Created with Vectornator for iOS (http://vectornator.io/) --><!DOCTYPE svg PUBLIC "-//W3C//DTD SVG 1.1//EN" "http://www.w3.org/Graphics/SVG/1.1/DTD/svg11.dtd">
<svg height="100%" style="fill-rule:nonzero;clip-rule:evenodd;stroke-linecap:round;stroke-linejoin:round;" xmlns:xlink="http://www.w3.org/1999/xlink" xmlns="http://www.w3.org/2000/svg" xml:space="preserve" width="100%" xmlns:vectornator="http://vectornator.io" version="1.1" viewBox="0 0 264 280">
<metadata>
<vectornator:setting key="DimensionsVisible" value="1"/>
<vectornator:setting key="SnapToEdges" value="0"/>
<vectornator:setting key="Units" value="Points"/>
<vectornator:setting key="PencilOnly" value="0"/>
<vectornator:setting key="DisplayWhiteBackground" value="0"/>
<vectornator:setting key="TimeLapseWatermarkDisabled" value="0"/>
<vectornator:setting key="CMYKEnabledKey" value="0"/>
<vectornator:setting key="OutlineMode" value="0"/>
<vectornator:setting key="SnapToGuides" value="1"/>
<vectornator:setting key="RulersVisible" value="1"/>
<vectornator:setting key="SnapToPoints" value="0"/>
<vectornator:setting key="IsolateActiveLayer" value="0"/>
<vectornator:setting key="SnapToGrid" value="0"/>
<vectornator:setting key="doHistoryDisabled" value="0"/>
<vectornator:setting key="DynamicGuides" value="1"/>
<vectornator:setting key="GuidesVisible" value="1"/>
</metadata>
<defs>
<path d="M5.06451+140C5.06451+70.2079+61.6422+13.6302+131.434+13.6302C201.226+13.6302+257.804+70.2079+257.804+140C257.804+209.792+201.226+266.37+131.434+266.37C61.6422+266.37+5.06451+209.792+5.06451+140Z" id="Mask"/>
<linearGradient y1="22.6742" id="LinearGradient" x1="132" y2="217.404" x2="132" gradientUnits="userSpaceOnUse" gradientTransform="matrix(1 0 0 1 0 0)">
<stop stop-opacity="0.811082" stop-color="#008077" offset="0.0234558"/>
<stop stop-color="#53c6be" offset="0.895809"/>
</linearGradient>
<linearGradient y1="139.561" id="LinearGradient_2" x1="134.816" y2="109.747" x2="140.181" gradientUnits="userSpaceOnUse" gradientTransform="matrix(1.14043 0 0 1 -24.1422 5.70821)">
<stop stop-color="#907366" offset="0"/>
<stop stop-color="#e3b5a0" offset="0.998029"/>
</linearGradient>
<linearGradient y1="41.9956" id="LinearGradient_3" x1="138.019" y2="14.4772" x2="82.826" gradientUnits="userSpaceOnUse" gradientTransform="matrix(1 0 0 1 -0.496006 5.70821)">
<stop stop-color="#634533" offset="0"/>
<stop stop-color="#965e39" offset="0.968732"/>
</linearGradient>
<linearGradient y1="42.6191" id="LinearGradient_4" x1="152.297" y2="48.7941" x2="207.18" gradientUnits="userSpaceOnUse" gradientTransform="matrix(1 0 0 1 -0.496006 5.70821)">
<stop stop-color="#634533" offset="0"/>
<stop stop-color="#965e39" offset="0.968732"/>
</linearGradient>
</defs>
<g id="Avataaar" vectornator:layerName="Avataaar">
<g opacity="1" vectornator:mask="#Mask">
<use xlink:href="#Mask" fill="url(#LinearGradient)" stroke="none"/>
<clipPath id="ClipPath">
<use xlink:href="#Mask" fill="none" overflow="visible"/>
</clipPath>
<g clip-path="url(#ClipPath)">
<g opacity="1">
<g opacity="1">
<path d="M77.7995+137.34L80.4547+156.612L83.29+165.425L86.5547+175.617C86.5547+175.617+88.8795+181.217+95.1495+185.289C106.092+192.395+117.679+199.438+130.739+199.438C130.869+199.438+130.991+199.407+131.121+199.406C131.25+199.407+131.372+199.438+131.502+199.438C144.562+199.438+156.149+192.395+167.092+185.289C173.362+181.217+176.722+172.457+176.722+172.457L180.389+160.569L184.383+148.965L184.441+137.34C179.916+147.261+159.382+191.224+131.502+191.224C131.373+191.224+131.249+191.194+131.121+191.192C130.992+191.194+130.868+191.224+130.739+191.224C102.859+191.224+82.3252+147.261+77.7995+137.34Z" fill-opacity="0.1" fill="#000000" opacity="1"/>
<path d="M131.703+37.2445C107.289+40.5921+86.1849+54.0103+79.9112+82.7044C78.4242+89.5059+80.7925+97.1806+78.3608+103.632C76.8805+107.559+77.3289+102.854+73.6654+104.863C72.7802+105.348+68.4399+119.563+69.3859+127.363C70.3104+134.987+74.404+142.972+77.2457+141.164C78.065+140.643+78.3608+140.731+78.3608+137.644C79.5282+147.554+82.8602+156.381+86.041+164.247C88.8812+171.27+86.3262+173.616+94.8793+181.635C103.432+189.653+111.507+193.22+120.254+196.321C125.72+198.259+127.528+197.168+131.703+197.456C135.878+197.168+137.686+198.259+143.153+196.321C151.9+193.22+159.649+190.345+168.527+181.635C177.405+172.925+175.825+168.505+178.665+161.482C181.846+153.616+183.878+147.554+185.046+137.644C185.046+140.731+185.141+141.406+187.943+141.673C190.005+141.869+193.096+134.987+194.021+127.363C194.967+119.563+192.79+105.676+191.456+105.167C187.552+103.679+186.526+107.559+185.046+103.632C182.614+97.1806+184.982+89.5059+183.495+82.7044C177.222+54.0103+156.118+40.5921+131.703+37.2445Z" opacity="1" fill="#ffceb5"/>
<path d="M187.89+137.537C187.89+137.537+188.986+139.709+189.186+141.218C189.264+141.809+189.302+142.142+189.282+142.55C189.26+143.007+189.174+143.522+189.064+143.817C188.819+144.473+188.415+145.068+187.869+144.796C187.323+144.523+187.197+143.601+186.993+142.652C186.79+141.703+186.925+141.562+186.925+141.562L187.437+141.642C187.437+141.642+187.763+143.432+188.099+143.828C188.435+144.225+188.558+142.989+188.558+142.989C188.558+142.989+188.571+141.768+188.389+141.024C188.084+139.777+187.578+138.017+187.578+138.017L187.89+137.537Z" opacity="1" fill="#ffc44d"/>
</g>
<path d="M95.6955+110.351C95.6955+107.008+100.115+104.404+105.566+104.404C111.018+104.404+115.437+107.008+115.437+110.351C115.437+113.694+111.018+116.404+105.566+116.404C100.115+116.404+95.6955+113.694+95.6955+110.351Z" opacity="1" fill="#ffffff"/>
<path d="M99.504+110.404C99.504+107.09+102.19+104.404+105.504+104.404C108.818+104.404+111.504+107.09+111.504+110.404C111.504+113.718+108.818+116.404+105.504+116.404C102.19+116.404+99.504+113.718+99.504+110.404Z" opacity="1" fill="#4a312c"/>
<path d="M120.215+115.761L121.742+109.425C121.742+109.425+122.392+105.686+121.344+102.771C120.296+99.8558+117.548+97.764+117.548+97.764L104.143+95.9178L96.0912+96.2672L89.1139+100.222L85.4292+108.917C85.4292+108.917+88.3912+106.894+91.6698+105.277C94.9484+103.66+95.0593+103.535+98.5437+102.45C102.028+101.365+102.205+101.719+106.058+101.469C109.911+101.218+111.076+101.208+113.955+101.448C117.068+101.707+116.717+102.614+117.811+105.714C118.904+108.814+120.215+115.761+120.215+115.761Z" opacity="1" fill="#deb19c"/>
<path d="M87.0981+104.2C87.1061+104.392+87.3876+104.476+87.5252+104.329C90.2801+101.369+108.156+97.9665+117.09+99.86C122.269+100.957+122.38+98.7486+122.38+98.7486C122.38+98.7486+123.037+97.4424+122.829+96.0512C122.621+94.66+121.664+92.7887+121.547+93.1837L121.24+98.6853L120.901+93.2295L119.988+98.5142L120.176+93.9195C120.176+93.9195+114.004+92.5032+112.686+92.2999C106.538+91.352+100.102+91.992+95.7817+93.6978C88.9028+96.4135+86.8562+98.3445+87.0981+104.2Z" opacity="1" fill="#4a312c"/>
<path d="M111.066+158.895C111.066+160.134+124.234+168.332+131.504+168.332C138.774+168.332+151.941+160.134+151.941+158.895L131.504+158.895L111.066+158.895Z" fill-opacity="0.7" fill="#000000" opacity="1"/>
<path d="M111.066+158.895C111.066+161.656+118.931+163.613+121.692+163.613L139.886+163.613C142.648+163.613+151.941+161.656+151.941+158.895L131.012+158.895L111.066+158.895Z" opacity="1" fill="#f7f7ed"/>
<path d="M105.814+156.767C105.814+157.73+106.844+159.175+108.533+160.8C110.221+162.425+114.53+166.642+114.53+166.642C114.53+166.642+120.286+171.036+123.128+172.179C125.97+173.323+127.652+174.34+131.752+174.568C135.852+174.795+139.789+172.423+139.789+172.423L147.748+167.205C147.748+167.205+153.165+162.425+154.898+160.8C156.63+159.175+160.192+156.768+159.084+156.768C157.976+156.768+156.458+156.625+153.864+156.03C150.984+155.368+140.976+153.85+139.27+153.961C136.028+154.172+131.752+156.767+131.752+156.767C131.752+156.767+125.184+154.072+121.941+153.965C118.699+153.858+112.299+155.965+109.867+156.045C107.435+156.126+105.814+156.34+105.814+156.767ZM111.004+158.873L131.441+158.873L151.879+158.873C151.879+160.113+138.711+168.311+131.441+168.311C124.172+168.311+111.004+160.113+111.004+158.873Z" opacity="1" fill="#e8b6a0"/>
<path d="M120.289+142.537C125.696+145.812+136.429+146.513+139.636+142.06C140.457+140.919+141.424+137.636+140.527+136.135C136.953+130.158+137.544+126.811+136.673+120.674C135.803+114.537+137.047+111.588+137.047+111.588C137.047+111.588+139.204+105.39+142.932+103.434C143.809+102.974+148.259+101.06+155.005+101.228C162.427+101.413+172.184+103.658+172.74+102.478C175.247+97.1568+167.893+95.5005+167.893+95.5005C167.893+95.5005+155.077+94.258+147.918+94.7755C141.471+95.2415+140.197+97.2983+136.768+103.813C133.338+110.327+133.489+115.121+134.199+120.834C134.909+126.546+136.291+131.494+136.291+131.494C136.291+131.494+139.507+137.887+138.658+139.151C135.32+144.117+130.834+143.099+120.289+142.537Z" opacity="1" fill="url(#LinearGradient_2)"/>
<path d="M174.395+104.2C174.387+104.392+174.105+104.476+173.968+104.329C171.213+101.369+153.337+97.9665+144.402+99.86C139.683+100.86+138.452+96.612+139.76+94.6722C139.937+94.41+142.864+92.9537+143.862+92.6003C148.909+90.811+144.136+94.9925+144.136+94.9925C144.136+94.9925+146.192+92.7032+148.807+92.2999C154.954+91.352+161.39+91.992+165.711+93.6978C172.59+96.4135+174.636+98.3445+174.395+104.2Z" opacity="1" fill="#4a312c"/>
<path d="M95.6955+110.351C95.6955+107.008+100.115+104.404+105.566+104.404C111.018+104.404+115.437+107.008+115.437+110.351C115.437+110.693+115.504+110.938+115.437+111.021C115.133+111.404+114.015+109.316+112.136+107.791C110.437+106.413+107.828+105.839+105.504+105.839C103.108+105.839+100.269+106.375+98.5732+107.791C96.9354+109.16+95.9911+111.022+95.6955+111.021C95.6007+111.021+95.6955+110.806+95.6955+110.351Z" opacity="1" fill="#f5c8b2"/>
<path d="M147.577+110.351C147.577+107.008+151.996+104.404+157.448+104.404C162.899+104.404+167.319+107.008+167.319+110.351C167.319+113.694+162.899+116.404+157.448+116.404C151.996+116.404+147.577+113.694+147.577+110.351Z" opacity="1" fill="#ffffff"/>
<path d="M151.385+110.404C151.385+107.09+154.072+104.404+157.385+104.404C160.699+104.404+163.385+107.09+163.385+110.404C163.385+113.718+160.699+116.404+157.385+116.404C154.072+116.404+151.385+113.718+151.385+110.404Z" opacity="1" fill="#4a312c"/>
<path d="M147.577+110.351C147.577+107.008+151.996+104.404+157.448+104.404C162.899+104.404+167.319+107.008+167.319+110.351C167.319+110.693+167.385+110.938+167.319+111.021C167.015+111.404+165.896+109.316+164.018+107.791C162.318+106.413+159.709+105.839+157.385+105.839C154.99+105.839+152.151+106.375+150.455+107.791C148.817+109.16+147.872+111.022+147.577+111.021C147.482+111.021+147.577+110.806+147.577+110.351Z" opacity="1" fill="#f5c8b2"/>
<path d="M75.8922+117.29C77.0527+121.544+78.7512+125.14+80.6807+119.353C82.6102+113.567+82.2014+101.664+83.6102+94.1448C85.019+86.6255+84.756+91.9047+86.3159+89.2761C87.8758+86.6474+88.3281+86.4528+89.8498+83.6302C91.3715+80.8075+91.2375+81.2258+92.4028+77.9856C93.5682+74.7455+91.4303+74.8146+94.5113+70.6694C97.5924+66.5243+97.8695+65.6351+104.727+61.4049C111.585+57.1747+116.023+53.9776+121.941+53.7486C127.859+53.5196+128.399+60.4889+128.399+60.4889C128.399+60.4889+132.793+53.4363+137.769+52.1194C144.739+50.2747+142.001+50.9147+146.775+51.1999C150.899+51.4463+150.834+51.803+154.487+53.8677C158.139+55.9323+157.878+55.9424+161.385+59.4585C164.893+62.9746+165.085+63.5875+168.159+68.5269C171.233+73.4662+171.392+74.2085+173.682+79.216C175.972+84.2234+176.291+83.7534+177.318+88.5566C178.345+93.3599+177.791+98.4289+177.791+98.4289C177.791+98.4289+178.714+126.114+181.891+125.744C183.11+125.602+184.421+118.555+184.421+118.555L184.843+113.339L183.98+107.867L183.655+103.462L183.923+99.8002L184.726+93.0464L187.413+89.3534C187.413+89.3534+193.227+82.4205+193.956+78.4144C194.685+74.4082+190.327+73.3288+190.327+73.3288C190.327+73.3288+195.471+71.6035+196.01+66.4292C196.059+65.9537+192.672+67.1342+192.651+66.6098C192.63+66.1003+195.915+65.7525+195.923+65.1746C195.934+64.3244+195.904+63.56+195.847+62.8757C195.805+62.3847+192.589+64.2132+192.523+63.8027C192.476+63.5108+195.687+62.4238+195.703+62.1193C195.834+59.7271+194.469+57.9077+194.469+57.9077L187.219+55.4419L184.645+48.2015C184.645+48.2015+181.816+40.4242+178.54+37.0976C175.263+33.7711+164.854+32.0296+156.235+33.6691C147.615+35.3087+144.063+43.6558+144.063+43.6558C144.063+43.6558+144.767+41.8547+145.361+39.4581C146.171+36.1937+146.776+31.8246+145.121+29.3978C142.251+25.1894+127.651+18.8796+115.821+22.2649C106.107+25.0447+99.2234+26.9902+90.8818+32.6425C85.475+36.3061+85.6258+37.8297+85.1039+40.1318C84.8205+41.3814+85.7481+40.0166+81.0822+44.0229C76.4163+48.0292+86.5917+45.0221+66.4403+56.1571C62.2097+58.4947+62.4847+61.2784+64.8538+64.5606C67.2229+67.8428+68.5135+68.1859+68.5135+68.1859C68.5135+68.1859+70.7821+84.4612+71.1189+88.5444C71.4557+92.6276+74.7123+92.0088+75.1358+96.7984C75.5593+101.588+75.9559+101.144+76.1451+106.267C76.3342+111.39+74.7318+113.037+75.8922+117.29Z" opacity="1" fill="#63412d"/>
<path d="M102.045+110.404C102.045+108.459+103.622+106.883+105.566+106.883C107.511+106.883+109.088+108.459+109.088+110.404C109.088+112.348+107.511+113.925+105.566+113.925C103.622+113.925+102.045+112.348+102.045+110.404Z" opacity="1" fill="#000000"/>
<path d="M153.864+110.404C153.864+108.459+155.441+106.883+157.385+106.883C159.33+106.883+160.907+108.459+160.907+110.404C160.907+112.348+159.33+113.925+157.385+113.925C155.441+113.925+153.864+112.348+153.864+110.404Z" opacity="1" fill="#000000"/>
<path d="M106.871+107.991C106.871+107.379+107.367+106.883+107.979+106.883C108.591+106.883+109.088+107.379+109.088+107.991C109.088+108.603+108.591+109.099+107.979+109.099C107.367+109.099+106.871+108.603+106.871+107.991Z" fill-opacity="0.446011" fill="#ffffff" opacity="1"/>
<path d="M158.69+107.991C158.69+107.379+159.186+106.883+159.798+106.883C160.41+106.883+160.907+107.379+160.907+107.991C160.907+108.603+160.41+109.099+159.798+109.099C159.186+109.099+158.69+108.603+158.69+107.991Z" fill-opacity="0.446011" fill="#ffffff" opacity="1"/>
<path d="M142.159+46.0875C142.159+46.0875+145.539+41.6775+147.531+38.7234C149.522+35.7692+150.003+32.9301+149.699+31.1425C149.531+30.1524+147.855+27.1769+145.67+25.7272C143.485+24.2776+143.655+24.3419+139.074+22.1803C136.641+21.0319+134.691+20.8431+134.691+20.8431C134.691+20.8431+139.006+22.3878+141.991+24.3129C144.976+26.238+147.742+30.377+147.742+30.377C147.742+30.377+148.422+33.0321+147.694+35.1698C146.967+37.3075+147.036+36.8841+145.577+39.5836C144.118+42.283+142.159+46.0875+142.159+46.0875Z" opacity="1" fill="#63412d"/>
<path d="M123.747+47.5675C123.747+47.5675+110.712+58.9613+103.976+65.8217C97.2406+72.682+92.0008+83.4388+92.0008+83.4388C92.0008+83.4388+93.969+76.5049+95.1183+72.8093C96.2677+69.1137+103.686+62.5514+103.686+62.5514L123.747+47.5675Z" opacity="1" fill="#63412d"/>
<path d="M174.413+140.418L168.296+156.224L164.942+164.019C164.942+164.019+165.706+158.119+168.074+152.218C170.442+146.318+174.413+140.418+174.413+140.418Z" fill-opacity="0.304404" fill="#e8b6a0" opacity="1"/>
<path d="M90.033+140.418L96.1501+156.224L99.504+164.019C99.504+164.019+98.7403+158.119+96.3725+152.218C94.0048+146.318+90.033+140.418+90.033+140.418Z" fill-opacity="0.304404" fill="#e8b6a0" opacity="1"/>
<path d="M83.4776+65.9803C83.4776+65.9803+93.4522+63.2537+100.541+56.4306C107.63+49.6075+107.875+40.3318+111.834+38.6877C123.134+33.9948+123.723+28.742+129.579+33.4653C135.435+38.1886+128.388+60.4945+128.388+60.4945C128.388+60.4945+133.675+53.1974+138.651+51.8805C140.621+51.359+142.661+50.7951+142.661+50.7951C142.661+50.7951+142.859+45.5062+144.063+43.1961C145.74+39.9756+144.767+41.395+145.361+38.9984C146.171+35.734+146.776+31.3649+145.121+28.9381C142.251+24.7297+127.651+18.4199+115.821+21.8052C106.107+24.585+99.2234+26.5305+90.8818+32.1828C85.475+35.8464+85.6258+37.37+85.1039+39.6721C84.8205+40.9217+85.7481+39.5569+81.0822+43.5632C76.4163+47.5695+86.5917+44.5624+66.4403+55.6974C62.2097+58.035+62.4847+60.8188+64.8538+64.101C67.2229+67.3832+68.5135+67.7262+68.5135+67.7262L83.4776+65.9803Z" opacity="1" fill="url(#LinearGradient_3)"/>
<path d="M79.7442+46.8995C79.7442+46.8995+88.6914+42.5617+93.857+39.5451C99.0225+36.5285+97.1694+37.0439+101.439+34.6008C105.709+32.1578+110.764+29.7729+110.935+29.7729C110.935+29.7729+121.848+27.5894+122.318+27.5894C122.789+27.5894+113.415+30.5457+107.644+33.1468C101.874+35.7479+103.664+35.5984+99.2361+37.9939C94.8078+40.3894+95.3497+41.0616+90.3969+43.1649C85.4441+45.2682+79.7442+46.8995+79.7442+46.8995Z" opacity="1" fill="#63412d"/>
<path d="M149.88+51.2738L162.044+43.2344C162.044+43.2344+167.294+39.7817+171.588+44.217C175.882+48.6523+176.902+58.4589+179.219+60.9755C181.537+63.4922+187.604+63.3616+187.845+63.5421C188.085+63.7226+184.604+66.8095+181.246+66.6764C177.889+66.5433+177.159+66.9972+174.414+63.0097C171.67+59.0222+170.269+50.7264+170.269+50.7264C166.88+45.274+149.88+51.2738+149.88+51.2738Z" opacity="1" fill="url(#LinearGradient_4)"/>
<path d="M148.899+221.578C148.899+221.578+150.252+221.275+151.488+221.649C152.723+222.024+153.786+223.076+153.84+223.076L156.025+225.039C156.025+225.039+155.809+223.553+154.969+222.589C154.128+221.626+154.18+221.438+152.662+221.185C151.145+220.932+148.899+221.578+148.899+221.578Z" opacity="1" fill="#de4600"/>
<path d="M151.959+218.234C151.959+218.234+153.312+217.931+154.547+218.305C155.119+218.478+155.653+218.797+156.068+219.089C156.55+219.428+156.87+219.732+156.9+219.732L159.084+221.695C159.084+221.695+158.869+220.209+158.028+219.245C157.188+218.282+157.239+218.094+155.722+217.841C154.204+217.588+151.959+218.234+151.959+218.234Z" opacity="1" fill="#de4600"/>
<path d="M154.623+215.023C154.623+215.023+155.976+214.719+157.211+215.094C158.447+215.469+159.509+216.521+159.564+216.521L161.748+218.484C161.748+218.484+161.533+216.998+160.692+216.034C159.852+215.071+159.903+214.883+158.386+214.63C156.868+214.377+154.623+215.023+154.623+215.023Z" opacity="1" fill="#de4600"/>
<path d="M115.601+222.034C115.601+222.034+114.247+221.731+113.012+222.106C111.777+222.48+110.714+223.533+110.659+223.533L108.475+225.495C108.475+225.495+108.69+224.009+109.531+223.046C110.371+222.082+110.32+221.894+111.837+221.641C113.355+221.389+115.601+222.034+115.601+222.034Z" opacity="1" fill="#de4600"/>
<path d="M108.284+213.886C108.284+213.886+106.93+213.583+105.695+213.958C104.46+214.332+103.397+215.385+103.342+215.385L101.158+217.347C101.158+217.347+101.373+215.861+102.214+214.898C103.054+213.934+103.003+213.746+104.52+213.493C106.038+213.241+108.284+213.886+108.284+213.886Z" opacity="1" fill="#de4600"/>
<path d="M111.065+218.024C111.065+218.024+109.712+217.72+108.476+218.095C107.241+218.47+106.178+219.522+106.124+219.522L103.939+221.485C103.939+221.485+104.155+219.999+104.995+219.035C105.836+218.072+105.784+217.884+107.302+217.631C108.819+217.378+111.065+218.024+111.065+218.024Z" opacity="1" fill="#de4600"/>
<path d="M74.4904+109.513C73.8587+107.481+72.5559+112.029+72.7649+116.331C72.817+117.404+73.3183+121.089+73.3912+122.219C73.6107+125.62+73.033+127.337+73.3404+129.857C74.0014+135.275+76.2447+134.845+76.2447+134.845C76.2447+134.845+78.6471+131.208+76.2793+125.308C75.097+122.362+74.6663+119.161+74.4527+116.44C74.2385+113.713+74.8067+110.53+74.4904+109.513Z" fill-opacity="0.398515" fill="#e8b6a0" opacity="1"/>
<path d="M188.646+108.972C189.278+106.94+190.58+111.488+190.371+115.791C190.319+116.863+189.818+120.549+189.745+121.678C189.526+125.079+190.103+126.796+189.796+129.316C189.135+134.734+186.892+134.304+186.892+134.304C186.892+134.304+184.489+130.668+186.857+124.767C188.039+121.821+188.47+118.62+188.684+115.899C188.898+113.172+188.33+109.989+188.646+108.972Z" fill-opacity="0.398515" fill="#e8b6a0" opacity="1"/>
<path d="M106.868+68.0217L126.579+67.6926L141.181+67.4488L158.329+66.8258C158.329+66.8258+146.54+65.5056+133.675+65.8045C120.81+66.1035+106.868+68.0217+106.868+68.0217Z" fill-opacity="0.176774" fill="#e8b6a0" opacity="1"/>
<path d="M127.179+155.244L128.137+144.961C128.137+144.961+129.865+145.297+131.484+145.248C133.103+145.2+134.612+144.845+134.612+144.769C134.612+144.612+135.689+154.78+135.689+154.78L131.703+156.768L127.179+155.244Z" fill-opacity="0.90001" fill="#f5c8b2" opacity="1"/>
<g opacity="1">
<path d="M63.3061+133.956C63.7967+135.253+64.5169+136.449+65.3999+137.487C64.5038+136.446+63.8012+135.264+63.3061+133.956ZM65.3999+137.487C66.2954+138.54+67.3815+139.419+68.5874+140.112C67.3844+139.426+66.2959+138.529+65.3999+137.487ZM68.5874+140.112C69.6763+140.738+70.8809+141.133+72.1499+141.393C70.8825+141.134+69.6766+140.733+68.5874+140.112ZM193.744+133.956C193.249+135.264+192.546+136.446+191.65+137.487C192.533+136.449+193.253+135.253+193.744+133.956ZM73.9936+148.3C74.0998+148.763+74.2197+149.216+74.3374+149.675C74.2203+149.218+74.0995+148.761+73.9936+148.3ZM183.056+148.3C182.95+148.761+182.829+149.218+182.712+149.675C182.83+149.216+182.95+148.763+183.056+148.3ZM75.9311+154.8C76.1122+155.299+76.2676+155.807+76.4624+156.3C76.2701+155.807+76.1117+155.298+75.9311+154.8ZM181.119+154.8C180.938+155.298+180.78+155.807+180.587+156.3C180.782+155.807+180.938+155.299+181.119+154.8ZM178.025+161.893C177.909+162.122+177.804+162.356+177.681+162.581C177.804+162.356+177.905+162.12+178.025+161.893ZM82.7436+167.925C83.0227+168.321+83.3296+168.692+83.6186+169.081C83.33+168.693+83.024+168.319+82.7436+167.925ZM174.306+167.925C174.026+168.319+173.72+168.693+173.431+169.081C173.72+168.692+174.027+168.321+174.306+167.925ZM86.6811+172.862C87.1761+173.42+87.6645+173.981+88.1811+174.518C87.6655+173.981+87.1758+173.419+86.6811+172.862ZM170.369+172.862C169.874+173.419+169.384+173.981+168.869+174.518C169.385+173.981+169.874+173.42+170.369+172.862ZM97.9311+182.612C98.3931+182.915+98.866+183.198+99.3374+183.487C98.8668+183.2+98.3934+182.911+97.9311+182.612ZM159.119+182.612C158.656+182.911+158.183+183.2+157.712+183.487C158.184+183.198+158.657+182.915+159.119+182.612ZM103.462+185.768C103.826+185.951+104.157+186.187+104.525+186.362L104.525+204.737L100.525+204.737C60.7604+204.737+28.5249+236.973+28.5249+276.737L28.5249+285.737L228.525+285.737L228.525+276.737C228.525+236.973+196.289+204.737+156.525+204.737L152.525+204.737L152.525+186.362C152.893+186.187+153.224+185.951+153.587+185.768C146.04+189.557+137.546+191.737+128.525+191.737C119.504+191.737+111.01+189.557+103.462+185.768Z" opacity="1" fill="#f5c9b2"/>
<path d="M101.025+199.062C83.8703+199.062+46.9822+223.539+46.9822+223.539C46.9822+223.539+29.0249+248.453+29.0249+271.062L29.0249+280L229.025+280L229.025+271.062C229.025+246.223+207.539+221.485+207.539+221.485C207.539+221.485+171.95+199.062+157.025+199.062L155.837+199.062C155.964+200.046+156.025+201.047+156.025+202.062C156.025+215.87+143.937+227.063+129.025+227.062C114.113+227.062+102.025+215.87+102.025+202.062C102.025+201.047+102.085+200.046+102.212+199.062L101.025+199.062Z" opacity="1" fill="#f8c69a"/>
<path d="M152.546+192.279C158.728+196.835+163.025+203.106+163.025+210.028C163.025+217.233+158.887+223.733+152.254+228.327L146.604+223.876L142.025+224.208L143.025+221.057L142.947+220.996C149.047+217.853+152.546+212.493+152.546+206.67L152.546+192.279ZM104.527+191.571C97.7598+196.174+93.527+202.74+93.527+210.028C93.527+217.426+97.8886+224.08+104.835+228.692L110.948+223.876L115.527+224.208L114.527+221.057L114.605+220.996C108.505+217.853+104.527+212.7+104.527+206.877L104.527+191.571Z" opacity="1" fill="#ff5100"/>
</g>
<g opacity="1">
<g opacity="1">
<path d="M63.3061+133.956C63.7967+135.253+64.5169+136.449+65.3999+137.487C64.5038+136.446+63.8012+135.264+63.3061+133.956ZM65.3999+137.487C66.2954+138.54+67.3815+139.419+68.5874+140.112C67.3844+139.426+66.2959+138.529+65.3999+137.487ZM68.5874+140.112C69.6763+140.738+70.8809+141.133+72.1499+141.393C70.8825+141.134+69.6766+140.733+68.5874+140.112ZM193.744+133.956C193.249+135.264+192.546+136.446+191.65+137.487C192.533+136.449+193.253+135.253+193.744+133.956ZM73.9936+148.3C74.0998+148.763+74.2197+149.216+74.3374+149.675C74.2203+149.218+74.0995+148.761+73.9936+148.3ZM183.056+148.3C182.95+148.761+182.829+149.218+182.712+149.675C182.83+149.216+182.95+148.763+183.056+148.3ZM75.9311+154.8C76.1122+155.299+76.2676+155.807+76.4624+156.3C76.2701+155.807+76.1117+155.298+75.9311+154.8ZM181.119+154.8C180.938+155.298+180.78+155.807+180.587+156.3C180.782+155.807+180.938+155.299+181.119+154.8ZM178.025+161.893C177.909+162.122+177.804+162.356+177.681+162.581C177.804+162.356+177.905+162.12+178.025+161.893ZM82.7436+167.925C83.0227+168.321+83.3296+168.692+83.6186+169.081C83.33+168.693+83.024+168.319+82.7436+167.925ZM174.306+167.925C174.026+168.319+173.72+168.693+173.431+169.081C173.72+168.692+174.027+168.321+174.306+167.925ZM86.6811+172.862C87.1761+173.42+87.6645+173.981+88.1811+174.518C87.6655+173.981+87.1758+173.419+86.6811+172.862ZM170.369+172.862C169.874+173.419+169.384+173.981+168.869+174.518C169.385+173.981+169.874+173.42+170.369+172.862ZM97.9311+182.612C98.3931+182.915+98.866+183.198+99.3374+183.487C98.8668+183.2+98.3934+182.911+97.9311+182.612ZM159.119+182.612C158.656+182.911+158.183+183.2+157.712+183.487C158.184+183.198+158.657+182.915+159.119+182.612ZM103.462+185.768C103.826+185.951+104.157+186.187+104.525+186.362L104.525+204.737L100.525+204.737C60.7604+204.737+28.5249+236.973+28.5249+276.737L28.5249+285.737L228.525+285.737L228.525+276.737C228.525+236.973+196.289+204.737+156.525+204.737L152.525+204.737L152.525+186.362C152.893+186.187+153.224+185.951+153.587+185.768C146.04+189.557+137.546+191.737+128.525+191.737C119.504+191.737+111.01+189.557+103.462+185.768Z" opacity="1" fill="#f5c9b2"/>
<path d="M101.025+199.062C83.8703+199.062+46.9822+223.539+46.9822+223.539C46.9822+223.539+29.0249+248.453+29.0249+271.062L29.0249+280L229.025+280L229.025+271.062C229.025+246.223+207.539+221.485+207.539+221.485C207.539+221.485+171.95+199.062+157.025+199.062L155.837+199.062C155.964+200.046+156.025+201.047+156.025+202.062C156.025+215.87+143.937+227.063+129.025+227.062C114.113+227.062+102.025+215.87+102.025+202.062C102.025+201.047+102.085+200.046+102.212+199.062L101.025+199.062Z" opacity="1" fill="#f8c69a"/>
<path d="M152.546+192.279C158.728+196.835+163.025+203.106+163.025+210.028C163.025+217.233+158.887+223.733+152.254+228.327L146.604+223.876L142.025+224.208L143.025+221.057L142.947+220.996C149.047+217.853+152.546+212.493+152.546+206.67L152.546+192.279ZM104.527+191.571C97.7598+196.174+93.527+202.74+93.527+210.028C93.527+217.426+97.8886+224.08+104.835+228.692L110.948+223.876L115.527+224.208L114.527+221.057L114.605+220.996C108.505+217.853+104.527+212.7+104.527+206.877L104.527+191.571Z" opacity="1" fill="#ff5100"/>
</g>
<path d="M72.7397+280C72.7397+280+72.9056+254.59+72.7424+254.345C72.5792+254.1+79.6639+235.153+79.7442+235.313C79.7934+235.412+85.4452+244.688+85.4292+257.656C85.4191+265.83+79.7442+280+79.7442+280L72.7397+280Z" opacity="1" fill="#ddb18a"/>
<path d="M190.786+280C190.786+280+190.62+254.59+190.783+254.345C190.947+254.1+183.862+235.153+183.782+235.313C183.733+235.412+178.081+244.688+178.097+257.656C178.107+265.83+183.782+280+183.782+280L190.786+280Z" opacity="1" fill="#ddb18a"/>
</g>
</g>
</g>
</g>
</g>
</svg>
