<svg id="visual" viewBox="0 0 900 600" width="900" height="600" xmlns="http://www.w3.org/2000/svg" xmlns:xlink="http://www.w3.org/1999/xlink" version="1.1"><rect x="0" y="0" width="900" height="600" fill="#ebfffe"></rect><defs><linearGradient id="grad1_0" x1="33.3%" y1="0%" x2="100%" y2="100%"><stop offset="20%" stop-color="#ffa076" stop-opacity="1"></stop><stop offset="80%" stop-color="#ffa076" stop-opacity="1"></stop></linearGradient></defs><defs><linearGradient id="grad1_1" x1="33.3%" y1="0%" x2="100%" y2="100%"><stop offset="20%" stop-color="#ffa076" stop-opacity="1"></stop><stop offset="80%" stop-color="#dcce8d" stop-opacity="1"></stop></linearGradient></defs><defs><linearGradient id="grad1_2" x1="33.3%" y1="0%" x2="100%" y2="100%"><stop offset="20%" stop-color="#caedce" stop-opacity="1"></stop><stop offset="80%" stop-color="#dcce8d" stop-opacity="1"></stop></linearGradient></defs><defs><linearGradient id="grad1_3" x1="33.3%" y1="0%" x2="100%" y2="100%"><stop offset="20%" stop-color="#caedce" stop-opacity="1"></stop><stop offset="80%" stop-color="#ebfffe" stop-opacity="1"></stop></linearGradient></defs><defs><linearGradient id="grad2_0" x1="0%" y1="0%" x2="66.7%" y2="100%"><stop offset="20%" stop-color="#ffa076" stop-opacity="1"></stop><stop offset="80%" stop-color="#ffa076" stop-opacity="1"></stop></linearGradient></defs><defs><linearGradient id="grad2_1" x1="0%" y1="0%" x2="66.7%" y2="100%"><stop offset="20%" stop-color="#dcce8d" stop-opacity="1"></stop><stop offset="80%" stop-color="#ffa076" stop-opacity="1"></stop></linearGradient></defs><defs><linearGradient id="grad2_2" x1="0%" y1="0%" x2="66.7%" y2="100%"><stop offset="20%" stop-color="#dcce8d" stop-opacity="1"></stop><stop offset="80%" stop-color="#caedce" stop-opacity="1"></stop></linearGradient></defs><defs><linearGradient id="grad2_3" x1="0%" y1="0%" x2="66.7%" y2="100%"><stop offset="20%" stop-color="#ebfffe" stop-opacity="1"></stop><stop offset="80%" stop-color="#caedce" stop-opacity="1"></stop></linearGradient></defs><g transform="translate(900, 0)"><path d="M0 351.5C-20.8 351.6 -41.6 351.6 -61 346.2C-80.5 340.8 -98.7 330 -116.6 320.4C-134.5 310.9 -152.2 302.5 -169 292.7C-185.8 282.9 -201.8 271.8 -218.5 260.5C-235.3 249.2 -252.9 237.7 -264.3 221.8C-275.7 205.8 -280.9 185.3 -290.1 167.5C-299.3 149.7 -312.5 134.7 -322.3 117.3C-332.1 100 -338.4 80.4 -342.7 60.4C-347 40.5 -349.3 20.2 -351.5 0L0 0Z" fill="#d4f7eb"></path><path d="M0 263.7C-15.6 263.7 -31.2 263.7 -45.8 259.7C-60.4 255.6 -74 247.5 -87.5 240.3C-100.9 233.1 -114.1 226.9 -126.7 219.5C-139.4 212.2 -151.3 203.8 -163.9 195.3C-176.5 186.9 -189.7 178.3 -198.2 166.3C-206.8 154.3 -210.7 139 -217.6 125.6C-224.5 112.3 -234.4 101 -241.7 88C-249.1 75 -253.8 60.3 -257 45.3C-260.3 30.4 -262 15.2 -263.7 0L0 0Z" fill="#cee0ac"></path><path d="M0 175.8C-10.4 175.8 -20.8 175.8 -30.5 173.1C-40.3 170.4 -49.4 165 -58.3 160.2C-67.3 155.4 -76.1 151.2 -84.5 146.4C-92.9 141.5 -100.9 135.9 -109.3 130.2C-117.7 124.6 -126.4 118.9 -132.1 110.9C-137.8 102.9 -140.5 92.6 -145.1 83.8C-149.7 74.9 -156.3 67.3 -161.2 58.7C-166 50 -169.2 40.2 -171.4 30.2C-173.5 20.2 -174.6 10.1 -175.8 0L0 0Z" fill="#eeb979"></path><path d="M0 87.9C-5.2 87.9 -10.4 87.9 -15.3 86.6C-20.1 85.2 -24.7 82.5 -29.2 80.1C-33.6 77.7 -38 75.6 -42.2 73.2C-46.5 70.7 -50.4 67.9 -54.6 65.1C-58.8 62.3 -63.2 59.4 -66.1 55.4C-68.9 51.4 -70.2 46.3 -72.5 41.9C-74.8 37.4 -78.1 33.7 -80.6 29.3C-83 25 -84.6 20.1 -85.7 15.1C-86.8 10.1 -87.3 5.1 -87.9 0L0 0Z" fill="#ffa076"></path></g><g transform="translate(0, 600)"><path d="M0 -351.5C19.9 -347.5 39.8 -343.5 60.1 -340.7C80.3 -338 101 -336.4 120.2 -330.3C139.5 -324.3 157.5 -313.7 174.5 -302.2C191.5 -290.7 207.7 -278.3 221.1 -263.5C234.6 -248.8 245.3 -231.7 257.4 -216C269.5 -200.2 282.9 -185.8 292.7 -169C302.5 -152.2 308.7 -133.2 314.8 -114.6C320.9 -95.9 326.8 -77.7 332.9 -58.7C339 -39.7 345.3 -19.8 351.5 0L0 0Z" fill="#d4f7eb"></path><path d="M0 -263.7C14.9 -260.7 29.9 -257.6 45.1 -255.6C60.3 -253.5 75.7 -252.3 90.2 -247.8C104.6 -243.2 118.1 -235.3 130.9 -226.7C143.7 -218.1 155.8 -208.7 165.8 -197.6C175.9 -186.6 184 -173.8 193 -162C202.1 -150.2 212.2 -139.3 219.5 -126.8C226.9 -114.2 231.6 -99.9 236.1 -85.9C240.6 -72 245.1 -58.3 249.6 -44C254.2 -29.7 258.9 -14.9 263.7 0L0 0Z" fill="#cee0ac"></path><path d="M0 -175.8C10 -173.8 19.9 -171.8 30 -170.4C40.2 -169 50.5 -168.2 60.1 -165.2C69.8 -162.1 78.7 -156.9 87.2 -151.1C95.8 -145.4 103.8 -139.1 110.6 -131.8C117.3 -124.4 122.7 -115.9 128.7 -108C134.7 -100.1 141.5 -92.9 146.4 -84.5C151.3 -76.1 154.4 -66.6 157.4 -57.3C160.4 -48 163.4 -38.9 166.4 -29.3C169.5 -19.8 172.6 -9.9 175.8 0L0 0Z" fill="#eeb979"></path><path d="M0 -87.9C5 -86.9 10 -85.9 15 -85.2C20.1 -84.5 25.2 -84.1 30.1 -82.6C34.9 -81.1 39.4 -78.4 43.6 -75.6C47.9 -72.7 51.9 -69.6 55.3 -65.9C58.6 -62.2 61.3 -57.9 64.3 -54C67.4 -50.1 70.7 -46.4 73.2 -42.3C75.6 -38.1 77.2 -33.3 78.7 -28.6C80.2 -24 81.7 -19.4 83.2 -14.7C84.7 -9.9 86.3 -5 87.9 0L0 0Z" fill="#ffa076"></path></g></svg>