<?xml version="1.0" encoding="UTF-8" standalone="no"?> <!-- Created with Vectornator for iOS (http://vectornator.io/) --><!DOCTYPE svg PUBLIC "-//W3C//DTD SVG 1.1//EN" "http://www.w3.org/Graphics/SVG/1.1/DTD/svg11.dtd">
<svg height="100%" style="fill-rule:nonzero;clip-rule:evenodd;stroke-linecap:round;stroke-linejoin:round;" xmlns:xlink="http://www.w3.org/1999/xlink" xmlns="http://www.w3.org/2000/svg" xml:space="preserve" width="100%" xmlns:vectornator="http://vectornator.io" version="1.1" viewBox="0 0 170 21">
<metadata>
<vectornator:setting key="RulersVisible" value="1"/>
<vectornator:setting key="IsolateActiveLayer" value="0"/>
<vectornator:setting key="DimensionsVisible" value="1"/>
<vectornator:setting key="SnapToGrid" value="0"/>
<vectornator:setting key="DynamicGuides" value="0"/>
<vectornator:setting key="CMYKEnabledKey" value="0"/>
<vectornator:setting key="OutlineMode" value="0"/>
<vectornator:setting key="SnapToGuides" value="1"/>
<vectornator:setting key="PencilOnly" value="0"/>
<vectornator:setting key="Units" value="Points"/>
<vectornator:setting key="SnapToPoints" value="0"/>
<vectornator:setting key="TimeLapseWatermarkDisabled" value="0"/>
<vectornator:setting key="DisplayWhiteBackground" value="0"/>
<vectornator:setting key="doHistoryDisabled" value="0"/>
<vectornator:setting key="SnapToEdges" value="0"/>
<vectornator:setting key="GuidesVisible" value="1"/>
</metadata>
<defs>
<linearGradient y1="11.3488" id="LinearGradient" x1="2.80626" y2="10.5" x2="17.0761" gradientUnits="userSpaceOnUse" gradientTransform="matrix(1 0 0 1 -4.44089e-16 0)">
<stop stop-color="#003330" offset="0"/>
<stop stop-color="#53c6be" offset="1"/>
</linearGradient>
<linearGradient y1="10.88" id="LinearGradient_2" x1="20.6511" y2="10.5" x2="32.758" gradientUnits="userSpaceOnUse" gradientTransform="matrix(1 0 0 1 -8.88178e-16 0)">
<stop stop-color="#003330" offset="0"/>
<stop stop-color="#53c6be" offset="1"/>
</linearGradient>
<linearGradient y1="10.5" id="LinearGradient_3" x1="39.5793" y2="10.5" x2="23.8836" gradientUnits="userSpaceOnUse" gradientTransform="matrix(1 0 0 1 -8.88178e-16 0)">
<stop stop-color="#003330" offset="0"/>
<stop stop-color="#53c6be" offset="1"/>
</linearGradient>
<linearGradient y1="11.3488" id="LinearGradient_4" x1="39.155" y2="10.5" x2="48.8761" gradientUnits="userSpaceOnUse" gradientTransform="matrix(1 0 0 1 0 0)">
<stop stop-color="#003330" offset="0"/>
<stop stop-color="#53c6be" offset="1"/>
</linearGradient>
<linearGradient y1="11.3488" id="LinearGradient_5" x1="54.6131" y2="10.5" x2="67.3592" gradientUnits="userSpaceOnUse" gradientTransform="matrix(1 0 0 1 0 0)">
<stop stop-color="#003330" offset="0"/>
<stop stop-color="#53c6be" offset="1"/>
</linearGradient>
<linearGradient y1="10.88" id="LinearGradient_6" x1="80.4767" y2="10.5" x2="93.427" gradientUnits="userSpaceOnUse" gradientTransform="matrix(1 0 0 1 0 0)">
<stop stop-color="#003330" offset="0"/>
<stop stop-color="#53c6be" offset="1"/>
</linearGradient>
<linearGradient y1="10.852" id="LinearGradient_7" x1="99.0584" y2="10.5" x2="113.051" gradientUnits="userSpaceOnUse" gradientTransform="matrix(1 0 0 1 0 0)">
<stop stop-color="#003330" offset="0"/>
<stop stop-color="#53c6be" offset="1"/>
</linearGradient>
<linearGradient y1="10.5" id="LinearGradient_8" x1="119.441" y2="10.5" x2="98.0138" gradientUnits="userSpaceOnUse" gradientTransform="matrix(1 0 0 1 0 0)">
<stop stop-color="#003330" offset="0"/>
<stop stop-color="#53c6be" offset="1"/>
</linearGradient>
<linearGradient y1="10.852" id="LinearGradient_9" x1="117.469" y2="10.0033" x2="132.695" gradientUnits="userSpaceOnUse" gradientTransform="matrix(1 0 0 1 -0.040846 0.49674)">
<stop stop-color="#003330" offset="0"/>
<stop stop-color="#53c6be" offset="1"/>
</linearGradient>
<linearGradient y1="10.5" id="LinearGradient_10" x1="131.025" y2="10.0033" x2="123.269" gradientUnits="userSpaceOnUse" gradientTransform="matrix(1 0 0 1 -0.040846 0.49674)">
<stop stop-color="#003330" offset="0"/>
<stop stop-color="#53c6be" offset="1"/>
</linearGradient>
<linearGradient y1="10.852" id="LinearGradient_11" x1="136.031" y2="10.0033" x2="145.569" gradientUnits="userSpaceOnUse" gradientTransform="matrix(1 0 0 1 0 0.49674)">
<stop stop-color="#003330" offset="0"/>
<stop stop-color="#53c6be" offset="1"/>
</linearGradient>
<linearGradient y1="10.852" id="LinearGradient_12" x1="151.804" y2="10.5" x2="163.64" gradientUnits="userSpaceOnUse" gradientTransform="matrix(1 0 0 1 0 0)">
<stop stop-color="#003330" offset="0"/>
<stop stop-color="#53c6be" offset="1"/>
</linearGradient>
</defs>
<g id="Layer 1" vectornator:layerName="Layer 1">
<path d="M7.77501+19.8039L8.68907+15.4914L10.5055+13.5812L12.8961+19.8039L18.4156+19.8039L14.7125+10.7218L22.1891+2.8937L16.5641+2.8937L10.1539+9.7023L9.91954+9.7023L11.3727+2.8937L6.40392+2.8937L2.80626+19.8039L7.77501+19.8039Z" opacity="1" fill="url(#LinearGradient)"/>
<path d="M20.6511+12.4562C20.6511+6.18667+24.7527+1.9562+30.0144+1.9562C35.0417+1.9562+37.7722+5.1437+37.7722+9.30386C37.7722+15.5968+33.6589+19.8039+28.4089+19.8039C23.5105+19.8039+20.6511+16.6281+20.6511+12.4562Z" opacity="1" fill="url(#LinearGradient_2)"/>
<path d="M25.6902+12.1398C25.6902+14.2843+26.8034+15.6554+28.5144+15.6554C30.7878+15.6554+32.7331+12.9953+32.7331+9.6437C32.7331+7.48745+31.6081+6.1398+29.8972+6.1398C27.6238+6.1398+25.6902+8.81167+25.6902+12.1398Z" opacity="1" fill="url(#LinearGradient_3)"/>
<path d="M51.9167+15.8664L44.9558+15.8664L45.5417+13.1359L52.0574+13.1359L52.8191+9.57339L46.3035+9.57339L46.8777+6.8312L53.8269+6.8312L54.6706+2.8937L42.7527+2.8937L39.155+19.8039L51.0847+19.8039L51.9167+15.8664Z" opacity="1" fill="url(#LinearGradient_4)"/>
<path d="M59.3592+19.8039L61.1873+11.1789L61.4217+11.1789L66.4842+19.8039L69.7654+19.8039L73.3631+2.8937L68.617+2.8937L66.7537+11.6359L66.5193+11.6359L61.5623+2.8937L58.2107+2.8937L54.6131+19.8039L59.3592+19.8039Z" opacity="1" fill="url(#LinearGradient_5)"/>
<path d="M92.5939+8.99917L97.34+8.99917C97.3868+8.68277+97.3986+8.43667+97.3986+8.13199C97.3986+4.66324+94.2228+1.9562+90.1446+1.9562C84.4728+1.9562+80.4767+6.29214+80.4767+12.5382C80.4767+16.9679+83.3829+19.8039+87.9298+19.8039C92.4415+19.8039+95.8986+17.1085+96.5314+13.1007L91.7618+13.1007C91.2579+14.6593+89.8634+15.7023+88.2931+15.7023C86.5821+15.7023+85.5275+14.4015+85.5275+12.2804C85.5275+8.7062+87.4025+6.06949+89.8634+6.06949C91.4806+6.06949+92.6056+7.15933+92.6056+8.71792C92.6056+8.8937+92.6056+8.9523+92.5939+8.99917Z" opacity="1" fill="url(#LinearGradient_6)"/>
<path d="M99.0584+12.4282C99.0584+6.15868+103.16+1.92822+108.422+1.92822C113.449+1.92822+116.179+5.11572+116.179+9.27587C116.179+15.5688+112.066+19.7759+106.816+19.7759C101.918+19.7759+99.0584+16.6001+99.0584+12.4282Z" opacity="1" fill="url(#LinearGradient_7)"/>
<path d="M104.097+12.1118C104.097+14.2563+105.211+15.6274+106.922+15.6274C109.195+15.6274+111.14+12.9673+111.14+9.61572C111.14+7.45947+110.015+6.11181+108.304+6.11181C106.031+6.11181+104.097+8.78368+104.097+12.1118Z" opacity="1" fill="url(#LinearGradient_8)"/>
<path d="M128.291+2.8937C132.205+2.8937+134.771+5.27261+134.771+9.35074C134.771+15.4328+131.209+19.8039+125.853+19.8039L117.428+19.8039L121.025+2.8937L128.291+2.8937Z" opacity="1" fill="url(#LinearGradient_9)"/>
<path d="M123.287+15.8664L125.139+15.8664C127.787+15.8664+129.662+13.6632+129.662+9.98355C129.662+8.09683+128.631+6.81949+126.873+6.81949L125.197+6.81949L123.287+15.8664Z" opacity="1" fill="url(#LinearGradient_10)"/>
<path d="M148.793+15.8664L141.832+15.8664L142.418+13.1359L148.933+13.1359L149.695+9.57339L143.179+9.57339L143.754+6.8312L150.703+6.8312L151.547+2.8937L139.629+2.8937L136.031+19.8039L147.961+19.8039L148.793+15.8664Z" opacity="1" fill="url(#LinearGradient_11)"/>
<path d="M151.804+14.3735C151.769+17.7485+154.617+19.7759+158.824+19.7759C163.5+19.7759+166.57+17.4673+166.57+13.8696C166.57+11.4321+165.269+10.061+162.328+9.25243L160.371+8.71337C159.047+8.35009+158.554+7.81103+158.554+7.08447C158.554+6.21728+159.551+5.58447+160.781+5.58447C162.222+5.58447+163.312+6.4165+163.312+7.43603L167.859+7.43603C167.906+4.17822+165.152+1.92822+160.933+1.92822C156.691+1.92822+153.586+4.354+153.586+7.69384C153.586+10.0845+155.109+11.7954+157.781+12.5571L159.691+13.0962C161.179+13.5181+161.672+13.8813+161.672+14.5493C161.672+15.4868+160.629+16.1079+159.164+16.1079C157.804+16.1079+156.597+15.4048+156.515+14.3735L151.804+14.3735Z" opacity="1" fill="url(#LinearGradient_12)"/>
</g>
</svg>
