<svg id="visual" viewBox="0 0 1440 200" width="1440" height="200" xmlns="http://www.w3.org/2000/svg" xmlns:xlink="http://www.w3.org/1999/xlink" version="1.1"><path d="M0 54L26.7 62.8C53.3 71.7 106.7 89.3 160 89.7C213.3 90 266.7 73 320 68.7C373.3 64.3 426.7 72.7 480 80C533.3 87.3 586.7 93.7 640 91.2C693.3 88.7 746.7 77.3 800 67.8C853.3 58.3 906.7 50.7 960 59.5C1013.3 68.3 1066.7 93.7 1120 98C1173.3 102.3 1226.7 85.7 1280 76C1333.3 66.3 1386.7 63.7 1413.3 62.3L1440 61" fill="none" stroke-linecap="round" stroke-linejoin="miter" stroke="#993000" stroke-width="25"></path></svg>