<?xml version="1.0" encoding="UTF-8" standalone="no"?> <!-- Created with Vectornator for iOS (http://vectornator.io/) --><!DOCTYPE svg PUBLIC "-//W3C//DTD SVG 1.1//EN" "http://www.w3.org/Graphics/SVG/1.1/DTD/svg11.dtd">
<svg height="100%" style="fill-rule:nonzero;clip-rule:evenodd;stroke-linecap:round;stroke-linejoin:round;" xmlns:xlink="http://www.w3.org/1999/xlink" xmlns="http://www.w3.org/2000/svg" xml:space="preserve" width="100%" xmlns:vectornator="http://vectornator.io" version="1.1" viewBox="0 0 600 600">
<metadata>
<vectornator:setting key="Units" value="Points"/>
<vectornator:setting key="RulersVisible" value="1"/>
<vectornator:setting key="OutlineMode" value="0"/>
<vectornator:setting key="doHistoryDisabled" value="0"/>
<vectornator:setting key="DynamicGuides" value="0"/>
<vectornator:setting key="IsolateActiveLayer" value="0"/>
<vectornator:setting key="SnapToGrid" value="0"/>
<vectornator:setting key="GuidesVisible" value="1"/>
<vectornator:setting key="SnapToPoints" value="0"/>
<vectornator:setting key="DisplayWhiteBackground" value="0"/>
<vectornator:setting key="SnapToGuides" value="1"/>
<vectornator:setting key="TimeLapseWatermarkDisabled" value="0"/>
<vectornator:setting key="CMYKEnabledKey" value="0"/>
<vectornator:setting key="SnapToEdges" value="0"/>
<vectornator:setting key="PencilOnly" value="0"/>
<vectornator:setting key="DimensionsVisible" value="1"/>
</metadata>
<defs/>
<g id="Untitled" vectornator:layerName="Untitled">
<g opacity="1">
<path d="M398.081+386.844L398.081+386.844C407.521+374.576+418.843+352.868+416.015+319.829C411.295+267.92+387.696+230.161+387.696+230.161C387.696+230.161+345.226+270.748+351.828+286.79C358.44+302.832+368.816+325.486+368.816+325.486C368.816+325.486+367.87+322.648+348.991+314.163C330.111+305.67+319.726+326.431+334.831+345.311C349.937+364.19+370.699+362.299+370.699+362.299L350.873+366.073L387.686+398.166C387.705+397.23+392.416+394.401+398.081+386.844ZM283.877+413.272L283.877+442.537L283.877+442.537L283.877+462.353C283.877+462.353+299.928+471.792+338.624+473.675C376.374+475.566+416.024+436.862+416.024+436.862L387.705+398.166C387.705+397.23+343.344+422.711+283.877+413.272Z" opacity="1" fill="#ffd2bb"/>
<path d="M264.052+487.844C256.494+468.964+283.877+444.419+284.814+442.537L284.814+442.537L284.814+462.353C284.814+462.353+300.856+471.792+339.56+473.675C377.319+475.566+416.961+436.862+416.961+436.862L450+442.527C450+442.527+391.479+505.768+356.558+509.542C320.69+513.326+271.609+506.723+264.052+487.844Z" opacity="1" fill="#ff5100"/>
<path d="M257.449+319.829C253.675+319.829+249.901+319.829+247.064+319.829C246.118+319.829+245.172+319.829+244.236+319.829C241.407+319.829+239.516+319.829+236.688+318.883C235.742+318.883+234.796+318.883+233.85+318.883C231.022+318.883+229.13+317.937+226.302+317.937C225.356+317.937+224.41+317.937+224.41+317.937C221.582+316.992+218.754+316.992+215.916+316.055C215.916+316.055+215.916+316.055+214.971+316.055C177.211+304.724+154.558+277.35+150.784+247.149C147.01+206.561+154.558+148.04+225.347+117.839C296.136+88.5737+302.747+132.944+316.897+125.387C331.057+117.839+338.605+87.6372+361.259+89.5196C383.912+91.4019+445.261+133.881+449.035+178.242C452.809+221.658+387.686+232.989+387.686+232.989C358.44+249.04+319.744+319.829+257.449+319.829Z" opacity="1" fill="#f8c69a"/>
<path d="M370.717+361.362C370.717+361.362+350.892+363.245+334.85+344.374C319.744+325.495+330.13+304.733+349.01+313.227C367.889+321.721+368.835+324.549+368.835+324.549C368.835+324.549+358.449+301.895+351.847+285.853C345.235+269.812+387.714+229.224+387.714+229.224C358.449+248.104+319.754+317.947+258.405+317.947C254.631+317.947+250.857+317.947+248.028+317.947C247.083+317.947+246.137+317.947+245.191+317.947C242.363+317.947+240.471+317.947+237.643+317.001C236.697+317.001+235.751+317.001+234.815+317.001C231.986+317.001+230.095+316.055+227.257+316.055C226.311+316.055+225.375+316.055+225.375+316.055C222.537+315.109+219.709+315.109+216.881+314.163C216.881+314.163+216.881+314.163+215.935+314.163C185.733+304.724+164.972+285.844+156.468+263.191C166.854+300.004+195.164+384.952+253.685+405.714C328.248+432.142+388.66+398.166+388.66+398.166L351.847+366.073L370.717+361.362Z" opacity="1" fill="#003330"/>
</g>
</g>
</svg>
