<svg id="visual" viewBox="0 0 1440 250" width="1440" height="250" xmlns="http://www.w3.org/2000/svg" xmlns:xlink="http://www.w3.org/1999/xlink" version="1.1"><path d="M0 133L26.7 128.7C53.3 124.3 106.7 115.7 160 105.8C213.3 96 266.7 85 320 85C373.3 85 426.7 96 480 107.5C533.3 119 586.7 131 640 133.7C693.3 136.3 746.7 129.7 800 121.8C853.3 114 906.7 105 960 101.7C1013.3 98.3 1066.7 100.7 1120 93.7C1173.3 86.7 1226.7 70.3 1280 72C1333.3 73.7 1386.7 93.3 1413.3 103.2L1440 113L1440 0L1413.3 0C1386.7 0 1333.3 0 1280 0C1226.7 0 1173.3 0 1120 0C1066.7 0 1013.3 0 960 0C906.7 0 853.3 0 800 0C746.7 0 693.3 0 640 0C586.7 0 533.3 0 480 0C426.7 0 373.3 0 320 0C266.7 0 213.3 0 160 0C106.7 0 53.3 0 26.7 0L0 0Z" fill="#53c6be"></path><path d="M0 54L26.7 65.3C53.3 76.7 106.7 99.3 160 97.3C213.3 95.3 266.7 68.7 320 54.5C373.3 40.3 426.7 38.7 480 44.3C533.3 50 586.7 63 640 74.7C693.3 86.3 746.7 96.7 800 90.2C853.3 83.7 906.7 60.3 960 59.7C1013.3 59 1066.7 81 1120 84.8C1173.3 88.7 1226.7 74.3 1280 68.5C1333.3 62.7 1386.7 65.3 1413.3 66.7L1440 68L1440 0L1413.3 0C1386.7 0 1333.3 0 1280 0C1226.7 0 1173.3 0 1120 0C1066.7 0 1013.3 0 960 0C906.7 0 853.3 0 800 0C746.7 0 693.3 0 640 0C586.7 0 533.3 0 480 0C426.7 0 373.3 0 320 0C266.7 0 213.3 0 160 0C106.7 0 53.3 0 26.7 0L0 0Z" fill="#49c7bc"></path><path d="M0 80L26.7 84C53.3 88 106.7 96 160 92.8C213.3 89.7 266.7 75.3 320 68.7C373.3 62 426.7 63 480 71.3C533.3 79.7 586.7 95.3 640 91C693.3 86.7 746.7 62.3 800 52.7C853.3 43 906.7 48 960 58C1013.3 68 1066.7 83 1120 89.3C1173.3 95.7 1226.7 93.3 1280 83C1333.3 72.7 1386.7 54.3 1413.3 45.2L1440 36L1440 0L1413.3 0C1386.7 0 1333.3 0 1280 0C1226.7 0 1173.3 0 1120 0C1066.7 0 1013.3 0 960 0C906.7 0 853.3 0 800 0C746.7 0 693.3 0 640 0C586.7 0 533.3 0 480 0C426.7 0 373.3 0 320 0C266.7 0 213.3 0 160 0C106.7 0 53.3 0 26.7 0L0 0Z" fill="#6cd0c8"></path><path d="M0 27L26.7 33.8C53.3 40.7 106.7 54.3 160 63.3C213.3 72.3 266.7 76.7 320 71.3C373.3 66 426.7 51 480 49C533.3 47 586.7 58 640 56.8C693.3 55.7 746.7 42.3 800 35.2C853.3 28 906.7 27 960 29.3C1013.3 31.7 1066.7 37.3 1120 47.8C1173.3 58.3 1226.7 73.7 1280 81C1333.3 88.3 1386.7 87.7 1413.3 87.3L1440 87L1440 0L1413.3 0C1386.7 0 1333.3 0 1280 0C1226.7 0 1173.3 0 1120 0C1066.7 0 1013.3 0 960 0C906.7 0 853.3 0 800 0C746.7 0 693.3 0 640 0C586.7 0 533.3 0 480 0C426.7 0 373.3 0 320 0C266.7 0 213.3 0 160 0C106.7 0 53.3 0 26.7 0L0 0Z" fill="#8adad4"></path><path d="M0 21L26.7 21.3C53.3 21.7 106.7 22.3 160 25.8C213.3 29.3 266.7 35.7 320 34.8C373.3 34 426.7 26 480 23.2C533.3 20.3 586.7 22.7 640 26.3C693.3 30 746.7 35 800 40.3C853.3 45.7 906.7 51.3 960 51.2C1013.3 51 1066.7 45 1120 42.5C1173.3 40 1226.7 41 1280 42C1333.3 43 1386.7 44 1413.3 44.5L1440 45L1440 0L1413.3 0C1386.7 0 1333.3 0 1280 0C1226.7 0 1173.3 0 1120 0C1066.7 0 1013.3 0 960 0C906.7 0 853.3 0 800 0C746.7 0 693.3 0 640 0C586.7 0 533.3 0 480 0C426.7 0 373.3 0 320 0C266.7 0 213.3 0 160 0C106.7 0 53.3 0 26.7 0L0 0Z" fill="#a5e4df"></path><path d="M0 29L26.7 31.5C53.3 34 106.7 39 160 35.3C213.3 31.7 266.7 19.3 320 15.5C373.3 11.7 426.7 16.3 480 17.2C533.3 18 586.7 15 640 13.8C693.3 12.7 746.7 13.3 800 16C853.3 18.7 906.7 23.3 960 28.8C1013.3 34.3 1066.7 40.7 1120 38.5C1173.3 36.3 1226.7 25.7 1280 20.8C1333.3 16 1386.7 17 1413.3 17.5L1440 18L1440 0L1413.3 0C1386.7 0 1333.3 0 1280 0C1226.7 0 1173.3 0 1120 0C1066.7 0 1013.3 0 960 0C906.7 0 853.3 0 800 0C746.7 0 693.3 0 640 0C586.7 0 533.3 0 480 0C426.7 0 373.3 0 320 0C266.7 0 213.3 0 160 0C106.7 0 53.3 0 26.7 0L0 0Z" fill="#c0edea"></path><path d="M0 11L26.7 10.5C53.3 10 106.7 9 160 11.3C213.3 13.7 266.7 19.3 320 20.7C373.3 22 426.7 19 480 15C533.3 11 586.7 6 640 9.2C693.3 12.3 746.7 23.7 800 27.7C853.3 31.7 906.7 28.3 960 24.3C1013.3 20.3 1066.7 15.7 1120 16C1173.3 16.3 1226.7 21.7 1280 19.8C1333.3 18 1386.7 9 1413.3 4.5L1440 0L1440 0L1413.3 0C1386.7 0 1333.3 0 1280 0C1226.7 0 1173.3 0 1120 0C1066.7 0 1013.3 0 960 0C906.7 0 853.3 0 800 0C746.7 0 693.3 0 640 0C586.7 0 533.3 0 480 0C426.7 0 373.3 0 320 0C266.7 0 213.3 0 160 0C106.7 0 53.3 0 26.7 0L0 0Z" fill="#d9f7f5"></path></svg>