<svg id="visual" viewBox="0 0 900 600" width="900" height="600" xmlns="http://www.w3.org/2000/svg" xmlns:xlink="http://www.w3.org/1999/xlink" version="1.1"><g><g transform="translate(123 472)"><path d="M27 14.7C18.1 31.1 -17.8 31.1 -26.8 14.6C-35.8 -1.8 -17.9 -34.6 0 -34.6C18 -34.6 36 -1.7 27 14.7Z" fill="#FFF1EB"></path></g><g transform="translate(352 104)"><path d="M27.1 14.2C19.2 29.3 -14.1 28.3 -22.9 12.7C-31.6 -3 -15.8 -33.3 0.8 -32.8C17.5 -32.3 35 -1 27.1 14.2Z" fill="#FFF1EB"></path></g><g transform="translate(560 507)"><path d="M31.8 15.5C23.8 32.3 -12.3 30.1 -22.3 12.2C-32.2 -5.7 -16.1 -39.3 1.9 -38.2C19.9 -37.1 39.9 -1.3 31.8 15.5Z" fill="#FFA076"></path></g></g></svg>