<svg id="visual" viewBox="0 0 900 600" width="900" height="600" xmlns="http://www.w3.org/2000/svg" xmlns:xlink="http://www.w3.org/1999/xlink" version="1.1"><g><g transform="translate(434 92)"><path d="M31.2 16.2C20.3 36.9 -22.5 37.3 -33.1 16.9C-43.6 -3.6 -21.8 -44.9 -0.4 -45.1C21 -45.3 42.1 -4.4 31.2 16.2Z" fill="#FFA076"></path></g><g transform="translate(137 236)"><path d="M20.4 11C14 22.9 -12.3 22.6 -19 10.5C-25.7 -1.5 -12.9 -25.3 0.3 -25.1C13.4 -25 26.9 -0.9 20.4 11Z" fill="#FFEBEC"></path></g><g transform="translate(721 437)"><path d="M28.3 17.2C17.9 34.5 -22.5 35.4 -32.2 18.5C-41.9 1.6 -20.9 -33.1 -0.8 -33.5C19.4 -34 38.8 -0.2 28.3 17.2Z" fill="#FFF1EB"></path></g></g></svg>