<?xml version="1.0" encoding="UTF-8" standalone="no"?> <!-- Created with Vectornator for iOS (http://vectornator.io/) --><!DOCTYPE svg PUBLIC "-//W3C//DTD SVG 1.1//EN" "http://www.w3.org/Graphics/SVG/1.1/DTD/svg11.dtd">
<svg height="100%" style="fill-rule:nonzero;clip-rule:evenodd;stroke-linecap:round;stroke-linejoin:round;" xmlns:xlink="http://www.w3.org/1999/xlink" xmlns="http://www.w3.org/2000/svg" xml:space="preserve" width="100%" xmlns:vectornator="http://vectornator.io" version="1.1" viewBox="0 0 264 280">
<metadata>
<vectornator:setting key="CMYKEnabledKey" value="0"/>
<vectornator:setting key="RulersVisible" value="1"/>
<vectornator:setting key="SnapToEdges" value="0"/>
<vectornator:setting key="TimeLapseWatermarkDisabled" value="0"/>
<vectornator:setting key="SnapToGrid" value="0"/>
<vectornator:setting key="IsolateActiveLayer" value="0"/>
<vectornator:setting key="Units" value="Points"/>
<vectornator:setting key="PencilOnly" value="0"/>
<vectornator:setting key="SnapToPoints" value="0"/>
<vectornator:setting key="doHistoryDisabled" value="0"/>
<vectornator:setting key="DisplayWhiteBackground" value="0"/>
<vectornator:setting key="DimensionsVisible" value="1"/>
<vectornator:setting key="GuidesVisible" value="1"/>
<vectornator:setting key="OutlineMode" value="0"/>
<vectornator:setting key="SnapToGuides" value="0"/>
<vectornator:setting key="DynamicGuides" value="0"/>
</metadata>
<defs>
<path d="M131.521+15.206C62.9259+15.206+7.22037+70.8208+5.67568+140C7.22037+209.179+62.9259+264.794+131.521+264.794C200.116+264.794+255.789+209.179+257.332+140C255.789+70.8208+200.116+15.206+131.521+15.206Z" id="Mask"/>
<linearGradient y1="33.4688" id="LinearGradient" x1="66.4579" y2="198.655" x2="172.007" gradientUnits="userSpaceOnUse" gradientTransform="matrix(1.08517 0 0 1.08517 -8.228 -21.1131)">
<stop stop-opacity="0.811082" stop-color="#008077" offset="0.0234558"/>
<stop stop-color="#53c6be" offset="0.895809"/>
</linearGradient>
<linearGradient y1="42.9098" id="LinearGradient_2" x1="115.944" y2="42.9098" x2="141.577" gradientUnits="userSpaceOnUse" gradientTransform="matrix(1 0 0 1 0 0)">
<stop stop-opacity="0.811082" stop-color="#008077" offset="0.0234558"/>
<stop stop-color="#53c6be" offset="0.895809"/>
</linearGradient>
<linearGradient y1="139.561" id="LinearGradient_3" x1="134.816" y2="109.747" x2="140.181" gradientUnits="userSpaceOnUse" gradientTransform="matrix(1.14043 0 0 1 -24.1422 5.70821)">
<stop stop-color="#907366" offset="0"/>
<stop stop-color="#e3b5a0" offset="0.998029"/>
</linearGradient>
<linearGradient y1="41.9956" id="LinearGradient_4" x1="138.019" y2="14.4772" x2="82.826" gradientUnits="userSpaceOnUse" gradientTransform="matrix(1 0 0 1 -0.496006 5.70821)">
<stop stop-color="#634533" offset="0"/>
<stop stop-color="#965e39" offset="0.968732"/>
</linearGradient>
<linearGradient y1="42.6191" id="LinearGradient_5" x1="152.297" y2="48.7941" x2="207.18" gradientUnits="userSpaceOnUse" gradientTransform="matrix(1 0 0 1 -0.496006 5.70821)">
<stop stop-color="#634533" offset="0"/>
<stop stop-color="#965e39" offset="0.968732"/>
</linearGradient>
</defs>
<g id="Avataaar" vectornator:layerName="Avataaar">
<g opacity="1" vectornator:mask="#Mask">
<use xlink:href="#Mask" fill="url(#LinearGradient)" stroke="none"/>
<clipPath id="ClipPath">
<use xlink:href="#Mask" fill="none" overflow="visible"/>
</clipPath>
<g clip-path="url(#ClipPath)">
<path d="M63.5312+134.312C64.0218+135.609+64.742+136.806+65.625+137.843C64.7289+136.802+64.0263+135.62+63.5312+134.312ZM65.625+137.843C66.5206+138.896+67.6067+139.775+68.8125+140.468C67.6096+139.783+66.5211+138.885+65.625+137.843ZM68.8125+140.468C69.9014+141.094+71.106+141.489+72.375+141.75C71.1077+141.49+69.9017+141.089+68.8125+140.468ZM193.969+134.312C193.474+135.62+192.771+136.802+191.875+137.843C192.758+136.806+193.478+135.609+193.969+134.312ZM74.2187+148.656C74.325+149.119+74.4449+149.572+74.5625+150.031C74.4454+149.574+74.3246+149.117+74.2187+148.656ZM183.281+148.656C183.175+149.117+183.055+149.574+182.938+150.031C183.055+149.572+183.175+149.119+183.281+148.656ZM76.1562+155.156C76.3373+155.655+76.4928+156.163+76.6875+156.656C76.4952+156.163+76.3368+155.654+76.1562+155.156ZM181.344+155.156C181.163+155.654+181.005+156.163+180.812+156.656C181.007+156.163+181.163+155.655+181.344+155.156ZM178.25+162.25C178.134+162.478+178.029+162.712+177.906+162.937C178.029+162.712+178.13+162.477+178.25+162.25ZM82.9687+168.281C83.2478+168.677+83.5548+169.048+83.8437+169.437C83.5551+169.049+83.2491+168.675+82.9687+168.281ZM174.531+168.281C174.251+168.675+173.945+169.049+173.656+169.437C173.945+169.048+174.252+168.677+174.531+168.281ZM86.9062+173.218C87.4013+173.776+87.8896+174.337+88.4062+174.875C87.8906+174.337+87.4009+173.775+86.9062+173.218ZM170.594+173.218C170.099+173.775+169.609+174.337+169.094+174.875C169.61+174.337+170.099+173.776+170.594+173.218ZM98.1562+182.968C98.6182+183.271+99.0912+183.554+99.5625+183.843C99.092+183.556+98.6185+183.267+98.1562+182.968ZM159.344+182.968C158.882+183.267+158.408+183.556+157.938+183.843C158.409+183.554+158.882+183.271+159.344+182.968ZM103.687+186.125C104.051+186.307+104.382+186.543+104.75+186.718L104.75+205.093L100.75+205.093C60.9855+205.093+28.75+237.329+28.75+277.093L28.75+286.093L228.75+286.093L228.75+277.093C228.75+237.329+196.515+205.093+156.75+205.093L152.75+205.093L152.75+186.718C153.118+186.543+153.449+186.307+153.812+186.125C146.265+189.914+137.771+192.093+128.75+192.093C119.729+192.093+111.235+189.914+103.687+186.125Z" opacity="1" fill="#f5c9b2"/>
<path d="M100.443+199.508C83.2885+199.508+46.4004+223.985+46.4004+223.985C46.4004+223.985+28.4431+248.898+28.4431+271.508L28.4431+280.446L228.443+280.446L228.443+271.508C228.443+246.669+206.957+221.931+206.957+221.931C206.957+221.931+171.368+199.508+156.443+199.508L152.821+199.474C152.948+200.457+152.629+202.111+152.629+203.126C152.629+207.239+153.102+211.244+151.553+214.589C147.9+222.474+138.913+227.508+128.443+227.508C118.642+227.508+110.784+223.481+107.038+216.545C105.085+212.929+104.77+208.25+104.77+203.517C104.77+202.502+104.643+200.492+104.77+199.508L100.443+199.508Z" opacity="1" fill="#993000"/>
<path d="M152.752+196.609C158.934+200.778+163.048+205.091+163.048+211.426C163.048+218.02+158.91+223.968+152.277+228.173L146.627+224.1L141.983+224.329L142.97+221.463C149.07+218.587+152.536+213.695+152.536+208.366L152.752+196.609Z" opacity="1" fill="#672000"/>
<path d="M104.667+195.939C97.9+200.151+94.3761+205.501+94.3761+212.171C94.3761+218.942+98.7377+225.031+105.685+229.252L111.797+224.845L116.376+225.148L115.376+222.264L115.454+222.208C109.354+219.333+105.376+214.617+105.376+209.287L104.667+195.939Z" opacity="1" fill="#672000"/>
<path d="M115.944+43.2658C120.157+42.8239+124.439+42.5539+128.775+42.5539C133.11+42.5539+137.365+42.8241+141.577+43.2658L115.944+43.2658Z" opacity="1" fill="url(#LinearGradient_2)"/>
<path d="M77.7995+137.34L80.4547+156.612L83.29+165.425L86.5547+175.617C86.5547+175.617+88.8795+181.217+95.1495+185.289C106.092+192.395+117.679+199.438+130.739+199.438C130.869+199.438+130.991+199.407+131.121+199.406C131.25+199.407+131.372+199.438+131.502+199.438C144.562+199.438+156.149+192.395+167.092+185.289C173.362+181.217+176.722+172.457+176.722+172.457L180.389+160.569L184.383+148.965L184.441+137.34C179.916+147.261+159.382+191.224+131.502+191.224C131.373+191.224+131.249+191.194+131.121+191.192C130.992+191.194+130.868+191.224+130.739+191.224C102.859+191.224+82.3252+147.261+77.7995+137.34Z" fill-opacity="0.1" fill="#000000" opacity="1"/>
<path d="M131.703+37.2445C107.289+40.5921+86.1849+54.0103+79.9112+82.7044C78.4242+89.5059+80.7925+97.1806+78.3608+103.632C76.8805+107.559+77.3289+102.854+73.6654+104.863C72.7802+105.348+68.4399+119.563+69.3859+127.363C70.3104+134.987+74.404+142.972+77.2457+141.164C78.065+140.643+78.3608+140.731+78.3608+137.644C79.5282+147.554+82.8602+156.381+86.041+164.247C88.8812+171.27+86.3262+173.616+94.8793+181.635C103.432+189.653+111.507+193.22+120.254+196.321C125.72+198.259+127.528+197.168+131.703+197.456C135.878+197.168+137.686+198.259+143.153+196.321C151.9+193.22+159.649+190.345+168.527+181.635C177.405+172.925+175.825+168.505+178.665+161.482C181.846+153.616+183.878+147.554+185.046+137.644C185.046+140.731+185.141+141.406+187.943+141.673C190.005+141.869+193.096+134.987+194.021+127.363C194.967+119.563+192.79+105.676+191.456+105.167C187.552+103.679+186.526+107.559+185.046+103.632C182.614+97.1806+184.982+89.5059+183.495+82.7044C177.222+54.0103+156.118+40.5921+131.703+37.2445Z" opacity="1" fill="#ffceb5"/>
<path d="M187.641+137.107C187.641+137.107+188.37+138.078+188.9+140.103C189.248+141.433+189.286+141.704+189.289+142.353C189.291+142.999+189.238+143.518+189.128+143.813C188.883+144.468+188.415+145.068+187.869+144.796C187.323+144.523+186.897+142.674+186.897+142.674L186.66+141.472L187.606+141.635C187.606+141.635+187.746+143.326+188.082+143.722C188.418+144.119+188.488+143.003+188.488+143.003C188.488+143.003+188.571+141.768+188.389+141.024C188.084+139.777+187.549+138.142+187.549+138.142L187.641+137.107Z" opacity="1" fill="#ffc44d"/>
<path d="M95.6955+110.351C95.6955+107.008+100.115+104.404+105.566+104.404C111.018+104.404+115.437+107.008+115.437+110.351C115.437+113.694+111.018+116.404+105.566+116.404C100.115+116.404+95.6955+113.694+95.6955+110.351Z" opacity="1" fill="#ffffff"/>
<path d="M99.504+110.404C99.504+107.09+102.19+104.404+105.504+104.404C108.818+104.404+111.504+107.09+111.504+110.404C111.504+113.718+108.818+116.404+105.504+116.404C102.19+116.404+99.504+113.718+99.504+110.404Z" opacity="1" fill="#543832"/>
<path d="M120.215+115.761L121.742+109.425C121.742+109.425+122.392+105.686+121.344+102.771C120.296+99.8558+117.548+97.764+117.548+97.764L104.143+95.9178L96.0912+96.2672L89.1139+100.222L85.4292+108.917C85.4292+108.917+88.3912+106.894+91.6698+105.277C94.9484+103.66+95.0593+103.535+98.5437+102.45C102.028+101.365+102.205+101.719+106.058+101.469C109.911+101.218+111.076+101.208+113.955+101.448C117.068+101.707+116.717+102.614+117.811+105.714C118.904+108.814+120.215+115.761+120.215+115.761Z" opacity="1" fill="#deb19c"/>
<path d="M87.0981+104.2C87.1061+104.392+87.3876+104.476+87.5252+104.329C90.2801+101.369+108.156+97.9665+117.09+99.86C122.269+100.957+122.38+98.7486+122.38+98.7486C122.38+98.7486+123.037+97.4424+122.829+96.0512C122.621+94.66+121.664+92.7887+121.547+93.1837L121.24+98.6853L120.901+93.2295L119.988+98.5142L120.176+93.9195C120.176+93.9195+114.004+92.5032+112.686+92.2999C106.538+91.352+100.102+91.992+95.7817+93.6978C88.9028+96.4135+86.8562+98.3445+87.0981+104.2Z" opacity="1" fill="#4a312c"/>
<path d="M111.066+158.895C111.066+160.134+124.234+168.332+131.504+168.332C138.774+168.332+151.941+160.134+151.941+158.895L131.504+158.895L111.066+158.895Z" fill-opacity="0.7" fill="#000000" opacity="1"/>
<path d="M111.066+158.895C111.066+161.656+118.931+163.613+121.692+163.613L139.886+163.613C142.648+163.613+151.941+161.656+151.941+158.895L131.012+158.895L111.066+158.895Z" opacity="1" fill="#f7f7ed"/>
<path d="M120.289+142.537C125.696+145.812+136.429+146.513+139.636+142.06C140.457+140.919+140.951+138.945+140.914+135.838C140.876+132.731+139.638+128.923+139.638+128.923C139.638+128.923+138.227+123.942+137.678+120.071C136.808+113.934+137.047+111.588+137.047+111.588C137.047+111.588+139.204+105.39+142.932+103.434C143.809+102.974+148.259+101.06+155.005+101.228C162.427+101.413+172.184+103.658+172.74+102.478C175.247+97.1568+167.893+95.5005+167.893+95.5005C167.893+95.5005+155.077+94.258+147.918+94.7755C141.471+95.2415+140.197+97.2983+136.768+103.813C133.338+110.327+134.471+111.881+135.308+117.561C136.157+123.316+136.803+125.493+136.803+125.493C136.803+125.493+140.159+135.474+138.647+139.743C136.263+146.471+130.834+143.099+120.289+142.537Z" opacity="1" fill="url(#LinearGradient_3)"/>
<path id="brow1" d="M174.395+104.2C174.387+104.392+174.105+104.476+173.968+104.329C171.213+101.369+153.337+97.9665+144.402+99.86C139.683+100.86+138.452+96.612+139.76+94.6722C139.937+94.41+142.864+92.9537+143.862+92.6003C148.909+90.811+144.136+94.9925+144.136+94.9925C144.136+94.9925+146.192+92.7032+148.807+92.2999C154.954+91.352+161.39+91.992+165.711+93.6978C172.59+96.4135+174.636+98.3445+174.395+104.2Z" id="brow2" opacity="1" fill="#4a312c"/>
<path d="M95.6955+110.351C95.6955+107.008+100.115+104.404+105.566+104.404C111.018+104.404+115.437+107.008+115.437+110.351C115.437+110.693+115.504+110.938+115.437+111.021C115.133+111.404+114.015+109.316+112.136+107.791C110.437+106.413+107.828+105.839+105.504+105.839C103.108+105.839+100.269+106.375+98.5732+107.791C96.9354+109.16+95.9911+111.022+95.6955+111.021C95.6007+111.021+95.6955+110.806+95.6955+110.351Z" opacity="1" fill="#f5c8b2"/>
<path d="M147.577+110.351C147.577+107.008+151.996+104.404+157.448+104.404C162.899+104.404+167.319+107.008+167.319+110.351C167.319+113.694+162.899+116.404+157.448+116.404C151.996+116.404+147.577+113.694+147.577+110.351Z" opacity="1" fill="#ffffff"/>
<path d="M151.385+110.404C151.385+107.09+154.072+104.404+157.385+104.404C160.699+104.404+163.385+107.09+163.385+110.404C163.385+113.718+160.699+116.404+157.385+116.404C154.072+116.404+151.385+113.718+151.385+110.404Z" opacity="1" fill="#543832"/>
<path d="M147.577+110.351C147.577+107.008+151.996+104.404+157.448+104.404C162.899+104.404+167.319+107.008+167.319+110.351C167.319+110.693+167.385+110.938+167.319+111.021C167.015+111.404+165.896+109.316+164.018+107.791C162.318+106.413+159.709+105.839+157.385+105.839C154.99+105.839+152.151+106.375+150.455+107.791C148.817+109.16+147.872+111.022+147.577+111.021C147.482+111.021+147.577+110.806+147.577+110.351Z" opacity="1" fill="#f5c8b2"/>
<path d="M75.8922+117.29C77.0527+121.544+78.7512+125.14+80.6807+119.353C82.6102+113.567+82.2014+101.664+83.6102+94.1448C85.019+86.6255+84.756+91.9047+86.3159+89.2761C87.8758+86.6474+88.3281+86.4528+89.8498+83.6302C91.3715+80.8075+91.2375+81.2258+92.4028+77.9856C93.5682+74.7455+91.4303+74.8146+94.5113+70.6694C97.5924+66.5243+97.8695+65.6351+104.727+61.4049C111.585+57.1747+116.023+53.9776+121.941+53.7486C127.859+53.5196+128.399+60.4889+128.399+60.4889C128.399+60.4889+132.793+53.4363+137.769+52.1194C144.739+50.2747+142.001+50.9147+146.775+51.1999C150.899+51.4463+150.834+51.803+154.487+53.8677C158.139+55.9323+157.878+55.9424+161.385+59.4585C164.893+62.9746+165.085+63.5875+168.159+68.5269C171.233+73.4662+171.392+74.2085+173.682+79.216C175.972+84.2234+176.291+83.7534+177.318+88.5566C178.345+93.3599+177.791+98.4289+177.791+98.4289C177.791+98.4289+178.714+126.114+181.891+125.744C183.11+125.602+184.421+118.555+184.421+118.555L184.843+113.339L183.98+107.867L183.655+103.462L183.923+99.8002L184.726+93.0464L187.413+89.3534C187.413+89.3534+193.227+82.4205+193.956+78.4144C194.685+74.4082+190.327+73.3288+190.327+73.3288C190.327+73.3288+195.471+71.6035+196.01+66.4292C196.059+65.9537+192.672+67.1342+192.651+66.6098C192.63+66.1003+195.915+65.7525+195.923+65.1746C195.934+64.3244+195.904+63.56+195.847+62.8757C195.805+62.3847+192.589+64.2132+192.523+63.8027C192.476+63.5108+195.687+62.4238+195.703+62.1193C195.834+59.7271+194.469+57.9077+194.469+57.9077L187.219+55.4419L184.645+48.2015C184.645+48.2015+181.816+40.4242+178.54+37.0976C175.263+33.7711+164.854+32.0296+156.235+33.6691C147.615+35.3087+144.063+43.6558+144.063+43.6558C144.063+43.6558+144.767+41.8547+145.361+39.4581C146.171+36.1937+146.776+31.8246+145.121+29.3978C142.251+25.1894+127.651+18.8796+115.821+22.2649C106.107+25.0447+99.2234+26.9902+90.8818+32.6425C85.475+36.3061+85.6258+37.8297+85.1039+40.1318C84.8205+41.3814+85.7481+40.0166+81.0822+44.0229C76.4163+48.0292+86.5917+45.0221+66.4403+56.1571C62.2097+58.4947+62.4847+61.2784+64.8538+64.5606C67.2229+67.8428+68.5135+68.1859+68.5135+68.1859C68.5135+68.1859+70.7821+84.4612+71.1189+88.5444C71.4557+92.6276+74.7123+92.0088+75.1358+96.7984C75.5593+101.588+75.9559+101.144+76.1451+106.267C76.3342+111.39+74.7318+113.037+75.8922+117.29Z" opacity="1" fill="#63412d"/>
<path d="M102.045+110.404C102.045+108.459+103.622+106.883+105.566+106.883C107.511+106.883+109.088+108.459+109.088+110.404C109.088+112.348+107.511+113.925+105.566+113.925C103.622+113.925+102.045+112.348+102.045+110.404Z" opacity="1" fill="#000000"/>
<path d="M153.864+110.404C153.864+108.459+155.441+106.883+157.385+106.883C159.33+106.883+160.907+108.459+160.907+110.404C160.907+112.348+159.33+113.925+157.385+113.925C155.441+113.925+153.864+112.348+153.864+110.404Z" opacity="1" fill="#000000"/>
<path d="M106.871+107.991C106.871+107.379+107.367+106.883+107.979+106.883C108.591+106.883+109.088+107.379+109.088+107.991C109.088+108.603+108.591+109.099+107.979+109.099C107.367+109.099+106.871+108.603+106.871+107.991Z" fill-opacity="0.446011" fill="#ffffff" opacity="1"/>
<path d="M158.69+107.991C158.69+107.379+159.186+106.883+159.798+106.883C160.41+106.883+160.907+107.379+160.907+107.991C160.907+108.603+160.41+109.099+159.798+109.099C159.186+109.099+158.69+108.603+158.69+107.991Z" fill-opacity="0.446011" fill="#ffffff" opacity="1"/>
<path d="M142.159+46.0875C142.159+46.0875+145.539+41.6775+147.531+38.7234C149.522+35.7692+150.003+32.9301+149.699+31.1425C149.531+30.1524+147.855+27.1769+145.67+25.7272C143.485+24.2776+143.655+24.3419+139.074+22.1803C136.641+21.0319+134.691+20.8431+134.691+20.8431C134.691+20.8431+139.006+22.3878+141.991+24.3129C144.976+26.238+147.742+30.377+147.742+30.377C147.742+30.377+148.422+33.0321+147.694+35.1698C146.967+37.3075+147.036+36.8841+145.577+39.5836C144.118+42.283+142.159+46.0875+142.159+46.0875Z" opacity="1" fill="#63412d"/>
<path d="M123.747+47.5675C123.747+47.5675+110.712+58.9613+103.976+65.8217C97.2406+72.682+92.0008+83.4388+92.0008+83.4388C92.0008+83.4388+93.969+76.5049+95.1183+72.8093C96.2677+69.1137+103.686+62.5514+103.686+62.5514L123.747+47.5675Z" opacity="1" fill="#63412d"/>
<path d="M174.413+140.418L168.296+156.224L164.942+164.019C164.942+164.019+165.706+158.119+168.074+152.218C170.442+146.318+174.413+140.418+174.413+140.418Z" fill-opacity="0.304404" fill="#e8b6a0" opacity="1"/>
<path d="M90.033+140.418L96.1501+156.224L99.504+164.019C99.504+164.019+98.7403+158.119+96.3725+152.218C94.0048+146.318+90.033+140.418+90.033+140.418Z" fill-opacity="0.304404" fill="#e8b6a0" opacity="1"/>
<path d="M83.4776+65.9803C83.4776+65.9803+93.4522+63.2537+100.541+56.4306C107.63+49.6075+107.875+40.3318+111.834+38.6877C123.134+33.9948+123.723+28.742+129.579+33.4653C135.435+38.1886+128.388+60.4945+128.388+60.4945C128.388+60.4945+133.675+53.1974+138.651+51.8805C140.621+51.359+142.661+50.7951+142.661+50.7951C142.661+50.7951+142.859+45.5062+144.063+43.1961C145.74+39.9756+144.767+41.395+145.361+38.9984C146.171+35.734+146.776+31.3649+145.121+28.9381C142.251+24.7297+127.651+18.4199+115.821+21.8052C106.107+24.585+99.2234+26.5305+90.8818+32.1828C85.475+35.8464+85.6258+37.37+85.1039+39.6721C84.8205+40.9217+85.7481+39.5569+81.0822+43.5632C76.4163+47.5695+86.5917+44.5624+66.4403+55.6974C62.2097+58.035+62.4847+60.8188+64.8538+64.101C67.2229+67.3832+68.5135+67.7262+68.5135+67.7262L83.4776+65.9803Z" opacity="1" fill="url(#LinearGradient_4)"/>
<path d="M79.7442+46.8995C79.7442+46.8995+88.6914+42.5617+93.857+39.5451C99.0225+36.5285+97.1694+37.0439+101.439+34.6008C105.709+32.1578+110.764+29.7729+110.935+29.7729C110.935+29.7729+121.848+27.5894+122.318+27.5894C122.789+27.5894+113.415+30.5457+107.644+33.1468C101.874+35.7479+103.664+35.5984+99.2361+37.9939C94.8078+40.3894+95.3497+41.0616+90.3969+43.1649C85.4441+45.2682+79.7442+46.8995+79.7442+46.8995Z" opacity="1" fill="#63412d"/>
<path d="M149.88+51.2738L162.044+43.2344C162.044+43.2344+167.294+39.7817+171.588+44.217C175.882+48.6523+176.902+58.4589+179.219+60.9755C181.537+63.4922+187.604+63.3616+187.845+63.5421C188.085+63.7226+184.604+66.8095+181.246+66.6764C177.889+66.5433+177.159+66.9972+174.414+63.0097C171.67+59.0222+170.269+50.7264+170.269+50.7264C166.88+45.274+149.88+51.2738+149.88+51.2738Z" opacity="1" fill="url(#LinearGradient_5)"/>
<path d="M74.4904+109.513C73.8587+107.481+72.5559+112.029+72.7649+116.331C72.817+117.404+73.3183+121.089+73.3912+122.219C73.6107+125.62+73.033+127.337+73.3404+129.857C74.0014+135.275+76.2447+134.845+76.2447+134.845C76.2447+134.845+78.6471+131.208+76.2793+125.308C75.097+122.362+74.6663+119.161+74.4527+116.44C74.2385+113.713+74.8067+110.53+74.4904+109.513Z" fill-opacity="0.398515" fill="#e8b6a0" opacity="1"/>
<path d="M188.646+108.972C189.278+106.94+190.58+111.488+190.371+115.791C190.319+116.863+189.818+120.549+189.745+121.678C189.526+125.079+190.103+126.796+189.796+129.316C189.135+134.734+186.892+134.304+186.892+134.304C186.892+134.304+184.489+130.668+186.857+124.767C188.039+121.821+188.47+118.62+188.684+115.899C188.898+113.172+188.33+109.989+188.646+108.972Z" fill-opacity="0.398515" fill="#e8b6a0" opacity="1"/>
<path d="M106.868+68.0217L126.579+67.6926L141.181+67.4488L158.329+66.8258C158.329+66.8258+146.54+65.5056+133.675+65.8045C120.81+66.1035+106.868+68.0217+106.868+68.0217Z" fill-opacity="0.176774" fill="#e8b6a0" opacity="1"/>
<path d="M127.179+155.244L128.137+144.961C128.137+144.961+129.865+145.297+131.484+145.248C133.103+145.2+134.612+144.845+134.612+144.769C134.612+144.612+135.689+154.78+135.689+154.78L131.703+156.768L127.179+155.244Z" fill-opacity="0.90001" fill="#f5c8b2" opacity="1"/>
<path d="M109.001+219.527C109.001+219.527+107.647+219.224+106.412+219.599C105.176+219.973+104.114+221.026+104.059+221.026L101.875+222.988C101.875+222.988+102.09+221.502+102.931+220.539C103.771+219.575+103.72+219.387+105.237+219.134C106.755+218.882+109.001+219.527+109.001+219.527Z" opacity="1" fill="#993000"/>
<path d="M146.817+221.161C146.817+221.161+148.17+220.858+149.405+221.232C150.641+221.607+151.703+222.659+151.758+222.659L153.942+224.622C153.942+224.622+153.727+223.136+152.886+222.172C152.046+221.209+152.097+221.021+150.58+220.768C149.062+220.515+146.817+221.161+146.817+221.161Z" opacity="1" fill="#993000"/>
<path d="M149.973+217.893C149.973+217.893+151.327+217.59+152.562+217.965C153.133+218.138+153.668+218.456+154.083+218.748C154.565+219.088+154.885+219.392+154.915+219.392L157.099+221.355C157.099+221.355+156.884+219.868+156.043+218.905C155.203+217.941+155.254+217.754+153.737+217.501C152.219+217.248+149.973+217.893+149.973+217.893Z" opacity="1" fill="#993000"/>
<path d="M152.406+214.796C152.406+214.796+153.759+214.493+154.995+214.868C156.23+215.242+157.292+216.295+157.347+216.295L159.531+218.258C159.531+218.258+159.316+216.771+158.476+215.808C157.635+214.844+157.687+214.657+156.169+214.404C154.652+214.151+152.406+214.796+152.406+214.796Z" opacity="1" fill="#993000"/>
<path d="M112.218+222.504C112.218+222.504+110.864+222.201+109.629+222.576C108.394+222.95+107.331+224.003+107.277+224.003L105.092+225.965C105.092+225.965+105.307+224.479+106.148+223.516C106.989+222.552+106.937+222.364+108.455+222.111C109.972+221.858+112.218+222.504+112.218+222.504Z" opacity="1" fill="#993000"/>
<path d="M106.402+216.548C106.402+216.548+105.049+216.245+103.813+216.62C102.578+216.995+101.515+218.047+101.461+218.047L99.2763+220.01C99.2763+220.01+99.4915+218.524+100.332+217.56C101.173+216.597+101.121+216.409+102.639+216.156C104.156+215.903+106.402+216.548+106.402+216.548Z" opacity="1" fill="#993000"/>
<path d="M122.091+165.491C121.83+165.491+121.368+165.582+121.028+165.616C124.696+167.342+128.623+168.866+131.622+168.866C134.52+168.866+138.276+167.418+141.841+165.772C141.408+165.728+140.608+165.491+140.309+165.491L122.091+165.491Z" opacity="1" fill="#f7f7ed"/>
<path d="M72.7396+280C72.7396+280+72.9056+256.745+72.7424+256.521C72.5792+256.297+79.6639+238.957+79.7442+239.104C79.7934+239.194+85.4452+247.684+85.4292+259.552C85.4191+267.032+79.7442+280+79.7442+280L72.7396+280Z" opacity="1" fill="#722400"/>
<path d="M190.786+280.428C190.786+280.428+190.62+257.173+190.783+256.949C190.947+256.725+183.862+239.385+183.782+239.532C183.733+239.622+178.081+248.111+178.097+259.98C178.107+267.46+183.782+280.428+183.782+280.428L190.786+280.428Z" opacity="1" fill="#722400"/>
<path d="M107.874+156.768C107.874+156.768+108.253+158.785+109.917+161.254C111.581+163.722+114.53+166.642+114.53+166.642C114.53+166.642+120.286+171.036+123.128+172.179C125.97+173.323+127.652+174.34+131.752+174.568C135.852+174.795+139.789+172.423+139.789+172.423L147.748+167.205C147.748+167.205+153.165+162.425+154.898+160.8C156.63+159.175+155.969+156.768+155.969+156.768C155.969+156.768+156.458+156.625+153.864+156.03C150.984+155.368+140.976+153.85+139.27+153.961C136.028+154.172+131.752+156.767+131.752+156.767C131.752+156.767+125.184+154.072+121.941+153.965C118.699+153.858+109.867+156.045+109.867+156.045L107.874+156.768ZM111.004+158.873L131.441+158.873L151.879+158.873C151.879+160.113+138.711+168.311+131.441+168.311C124.172+168.311+111.004+160.113+111.004+158.873Z" opacity="1" fill="#e8b6a0"/>
<path d="M189.499+141.007L189.512+141.987L190.238+142.53L189.412+142.847L189.177+143.791L188.653+143.007L187.781+143.047L188.283+142.245L187.98+141.326L188.814+141.615L189.499+141.007Z" opacity="1" fill="#ffffff"/>
</g>
</g>
</g>
</svg>
