<svg id="visual" viewBox="0 0 1440 2000" width="1440" height="2000" xmlns="http://www.w3.org/2000/svg" xmlns:xlink="http://www.w3.org/1999/xlink" version="1.1"><path d="M0 381L24 417.7C48 454.3 96 527.7 144 521C192 514.3 240 427.7 288 404.3C336 381 384 421 432 457.7C480 494.3 528 527.7 576 537.7C624 547.7 672 534.3 720 531C768 527.7 816 534.3 864 551C912 567.7 960 594.3 1008 617.7C1056 641 1104 661 1152 631C1200 601 1248 521 1296 497.7C1344 474.3 1392 507.7 1416 524.3L1440 541L1440 0L1416 0C1392 0 1344 0 1296 0C1248 0 1200 0 1152 0C1104 0 1056 0 1008 0C960 0 912 0 864 0C816 0 768 0 720 0C672 0 624 0 576 0C528 0 480 0 432 0C384 0 336 0 288 0C240 0 192 0 144 0C96 0 48 0 24 0L0 0Z" fill="#d9f7f5"></path><path d="M0 841L24 844.3C48 847.7 96 854.3 144 891C192 927.7 240 994.3 288 1034.3C336 1074.3 384 1087.7 432 1067.7C480 1047.7 528 994.3 576 961C624 927.7 672 914.3 720 901C768 887.7 816 874.3 864 877.7C912 881 960 901 1008 927.7C1056 954.3 1104 987.7 1152 991C1200 994.3 1248 967.7 1296 944.3C1344 921 1392 901 1416 891L1440 881L1440 539L1416 522.3C1392 505.7 1344 472.3 1296 495.7C1248 519 1200 599 1152 629C1104 659 1056 639 1008 615.7C960 592.3 912 565.7 864 549C816 532.3 768 525.7 720 529C672 532.3 624 545.7 576 535.7C528 525.7 480 492.3 432 455.7C384 419 336 379 288 402.3C240 425.7 192 512.3 144 519C96 525.7 48 452.3 24 415.7L0 379Z" fill="#dff6eb"></path><path d="M0 1041L24 1031C48 1021 96 1001 144 1031C192 1061 240 1141 288 1187.7C336 1234.3 384 1247.7 432 1234.3C480 1221 528 1181 576 1154.3C624 1127.7 672 1114.3 720 1091C768 1067.7 816 1034.3 864 1037.7C912 1041 960 1081 1008 1114.3C1056 1147.7 1104 1174.3 1152 1177.7C1200 1181 1248 1161 1296 1124.3C1344 1087.7 1392 1034.3 1416 1007.7L1440 981L1440 879L1416 889C1392 899 1344 919 1296 942.3C1248 965.7 1200 992.3 1152 989C1104 985.7 1056 952.3 1008 925.7C960 899 912 879 864 875.7C816 872.3 768 885.7 720 899C672 912.3 624 925.7 576 959C528 992.3 480 1045.7 432 1065.7C384 1085.7 336 1072.3 288 1032.3C240 992.3 192 925.7 144 889C96 852.3 48 845.7 24 842.3L0 839Z" fill="#e9f4e3"></path><path d="M0 1221L24 1207.7C48 1194.3 96 1167.7 144 1187.7C192 1207.7 240 1274.3 288 1321C336 1367.7 384 1394.3 432 1381C480 1367.7 528 1314.3 576 1287.7C624 1261 672 1261 720 1241C768 1221 816 1181 864 1191C912 1201 960 1261 1008 1297.7C1056 1334.3 1104 1347.7 1152 1351C1200 1354.3 1248 1347.7 1296 1314.3C1344 1281 1392 1221 1416 1191L1440 1161L1440 979L1416 1005.7C1392 1032.3 1344 1085.7 1296 1122.3C1248 1159 1200 1179 1152 1175.7C1104 1172.3 1056 1145.7 1008 1112.3C960 1079 912 1039 864 1035.7C816 1032.3 768 1065.7 720 1089C672 1112.3 624 1125.7 576 1152.3C528 1179 480 1219 432 1232.3C384 1245.7 336 1232.3 288 1185.7C240 1139 192 1059 144 1029C96 999 48 1019 24 1029L0 1039Z" fill="#f3f1e0"></path><path d="M0 1561L24 1541C48 1521 96 1481 144 1477.7C192 1474.3 240 1507.7 288 1537.7C336 1567.7 384 1594.3 432 1594.3C480 1594.3 528 1567.7 576 1544.3C624 1521 672 1501 720 1497.7C768 1494.3 816 1507.7 864 1534.3C912 1561 960 1601 1008 1634.3C1056 1667.7 1104 1694.3 1152 1691C1200 1687.7 1248 1654.3 1296 1624.3C1344 1594.3 1392 1567.7 1416 1554.3L1440 1541L1440 1159L1416 1189C1392 1219 1344 1279 1296 1312.3C1248 1345.7 1200 1352.3 1152 1349C1104 1345.7 1056 1332.3 1008 1295.7C960 1259 912 1199 864 1189C816 1179 768 1219 720 1239C672 1259 624 1259 576 1285.7C528 1312.3 480 1365.7 432 1379C384 1392.3 336 1365.7 288 1319C240 1272.3 192 1205.7 144 1185.7C96 1165.7 48 1192.3 24 1205.7L0 1219Z" fill="#fbeee1"></path><path d="M0 1761L24 1747.7C48 1734.3 96 1707.7 144 1711C192 1714.3 240 1747.7 288 1761C336 1774.3 384 1767.7 432 1751C480 1734.3 528 1707.7 576 1701C624 1694.3 672 1707.7 720 1724.3C768 1741 816 1761 864 1787.7C912 1814.3 960 1847.7 1008 1861C1056 1874.3 1104 1867.7 1152 1864.3C1200 1861 1248 1861 1296 1827.7C1344 1794.3 1392 1727.7 1416 1694.3L1440 1661L1440 1539L1416 1552.3C1392 1565.7 1344 1592.3 1296 1622.3C1248 1652.3 1200 1685.7 1152 1689C1104 1692.3 1056 1665.7 1008 1632.3C960 1599 912 1559 864 1532.3C816 1505.7 768 1492.3 720 1495.7C672 1499 624 1519 576 1542.3C528 1565.7 480 1592.3 432 1592.3C384 1592.3 336 1565.7 288 1535.7C240 1505.7 192 1472.3 144 1475.7C96 1479 48 1519 24 1539L0 1559Z" fill="#ffece5"></path><path d="M0 2001L24 2001C48 2001 96 2001 144 2001C192 2001 240 2001 288 2001C336 2001 384 2001 432 2001C480 2001 528 2001 576 2001C624 2001 672 2001 720 2001C768 2001 816 2001 864 2001C912 2001 960 2001 1008 2001C1056 2001 1104 2001 1152 2001C1200 2001 1248 2001 1296 2001C1344 2001 1392 2001 1416 2001L1440 2001L1440 1659L1416 1692.3C1392 1725.7 1344 1792.3 1296 1825.7C1248 1859 1200 1859 1152 1862.3C1104 1865.7 1056 1872.3 1008 1859C960 1845.7 912 1812.3 864 1785.7C816 1759 768 1739 720 1722.3C672 1705.7 624 1692.3 576 1699C528 1705.7 480 1732.3 432 1749C384 1765.7 336 1772.3 288 1759C240 1745.7 192 1712.3 144 1709C96 1705.7 48 1732.3 24 1745.7L0 1759Z" fill="#ffebec"></path></svg>