<svg id="visual" viewBox="0 0 1440 300" width="1440" height="300" xmlns="http://www.w3.org/2000/svg" xmlns:xlink="http://www.w3.org/1999/xlink" version="1.1"><path d="M0 110L24 131.5C48 153 96 196 144 216.2C192 236.3 240 233.7 288 219C336 204.3 384 177.7 432 153C480 128.3 528 105.7 576 119.5C624 133.3 672 183.7 720 192.7C768 201.7 816 169.3 864 158.7C912 148 960 159 1008 169C1056 179 1104 188 1152 185C1200 182 1248 167 1296 154.3C1344 141.7 1392 131.3 1416 126.2L1440 121" fill="none" stroke-linecap="round" stroke-linejoin="miter" stroke="#ff5100" stroke-width="40"></path></svg>