<?xml version="1.0" encoding="UTF-8"?><svg id="Layer_0_Image" data-name="Layer 0 Image" xmlns="http://www.w3.org/2000/svg" viewBox="0 0 800 600" x="0px" y="0px" width="800px" height="600px" version="1.1" xmlns:xlink="http://www.w3.org/1999/xlink"><title>1</title><path d="M478.475,437.356c-2.238,6.12-4.379,12.2-8.907,17.242a45.306,45.306,0,0,0-6.724,10.4c-.655,1.341-1.856,1.746-2.54,2.944-1.6,2.8-2.184,5.959-4.229,8.676-4.611,6.127-9.162,12.28-13.974,18.264-3.176,3.948-6.147,8.1-9.447,11.951-6.149,7.182-14,12-22.707,15.428-10.067,3.964-20.038,8.264-30.327,11.55-19.176,6.125-38.747,8.59-59,6.175-12.2-1.455-24.087-3.761-34.544-9.992-16.725-9.968-30.514-23.243-40.252-40.368a19.181,19.181,0,0,0-1.273-1.821c-3.982-5.413-7.573-11.006-9.4-17.6a57.6,57.6,0,0,0-3.719-9.47c-4.38-9.125-3.539-18.315,0-27.469,3.56-9.213,9.506-17.035,16.153-23.97,8.882-9.267,13.05-20.014,14.377-32.435,1.235-11.554-.793-22.743-2.851-33.974-1.263-6.893-2.391-13.812-3.748-20.685-2.188-11.08-7.286-20.956-12.518-30.855a161.241,161.241,0,0,1-15.17-40.771c-2.635-11.975-1.336-23.732,2.742-35.023,2.349-6.5,5.4-12.888,10.351-18.157,4.819-5.13,9.681-10.155,15.427-14.253,13.811-9.851,29.035-16.76,45.178-21.791,18.43-5.743,36.379-12.537,52.125-24.1a397.753,397.753,0,0,0,33.432-27.609c14.519-13.327,29.727-25.731,47.3-34.9,17.035-8.893,34.829-15.815,54.3-15.637,29.31.268,54.406,10.624,72.183,34.733,13.147,17.831,15.279,38.265,10.983,59.6-.776,3.851-1.561,7.7-2.461,11.525a76.827,76.827,0,0,1-12.177,27.14c-3.42,4.828-7.108,9.449-10.531,14.227a164.892,164.892,0,0,1-13.118,15.75A174.2,174.2,0,0,0,518.8,240.538c-1.572,2.245-4.063,3.607-5.582,6.022-5.747,9.133-11.721,18.129-15.824,28.175-2.214,5.421-4.473,10.709-4.908,16.819-.267,3.746-.039,7.48-.365,11.2-.489,5.577.473,11.073,1.36,16.522.34,2.093-2.2,3.786-1.65,3.931,2.957.786.878,2.448.937,3.655.036.714-.416,1.5-.255,2.154,2.745,11.136,1.558,22.512,1.793,33.761.217,10.443,1.13,21.084-1.694,31.319-1.03,3.734-1.781,7.567-2.868,11.3-1.305,4.476-3.712,8.674-4.114,13.343-.565,6.577-3.889,12.089-6.283,17.968-.131.324-.615.5-.941.761.306-3.5,3.174-6.113,3.274-9.714-2.457,5.222-5.524,10.168-6.8,15.925Zm-85.048-306.6c3.855-2.4,6.921-5.672,9.983-8.951-3.3,3.016-7.28,5.278-9.92,9.016-2.815,1-4.612,3.283-6.622,5.3A20.511,20.511,0,0,0,393.427,130.759Zm37.64-48.5a9.927,9.927,0,0,0,1.779-.557,175.227,175.227,0,0,1,42.407-16.326c.539-.126,1.277-.106,1.6-.934-1.007.144-1.954.256-2.892.419C461.592,67.01,450.13,71.729,439,77.318c-2.771,1.391-5.8,2.47-7.875,5-3.32.231-5.347,3.033-8.219,4.185a1.15,1.15,0,0,0-.279,1.893c.255.258.608.424.767.121C425.063,85.334,429.118,85.085,431.067,82.258ZM341.746,527.043a62.3,62.3,0,0,0,6.324-.032c8.548-.879,16.983-2.5,25.419-4.1,12.515-2.37,24.058-7.688,35.9-12.053,5.463-2.013,10.692-4.762,14.393-9.608a198.467,198.467,0,0,0,29.076-52.3c5.58-15.192,12.843-29.757,18.808-44.819a127.128,127.128,0,0,0,8.195-33.573c1.015-9.631.444-19.288.514-28.938.057-7.936-.084-15.864.415-23.826.351-5.607-.907-11.448-1.388-17.191-.848-10.114-.695-20.1,2.379-29.915a124.62,124.62,0,0,1,11.455-25.813c9.663-16.486,21.778-31.172,34.485-45.352,6.823-7.615,13.519-15.305,19.162-23.841a88.374,88.374,0,0,0,14.937-51.834c-.337-14.683-6.768-26.083-19.435-33.829-22.018-13.463-45.265-17.771-70.22-9.572C452.84,86.8,435.632,96.889,419.889,109.7c-9.818,7.993-18.783,16.94-28.573,24.956-13.336,10.92-26.884,21.516-42.59,28.941-12.154,5.747-24.93,9.79-37.78,13.59a142.1,142.1,0,0,0-31.312,13.373c-11.406,6.634-21.039,15.122-27.7,26.686-.794,1.377-.823,1.36-2.627,1.4-.549.011-.582.466-.766.832a23.99,23.99,0,0,0-2.8,10.565c-.03,2.543.952,6.18.082,7.4-2.8,3.927-.691,7.73-.176,11.04a91.79,91.79,0,0,0,2.973,12.477c3.156,10.324,6.782,20.464,11.923,29.949,4.716,8.7,9.285,17.478,10.645,27.332.394,2.856,3.836,6.118.162,9.168a5.4,5.4,0,0,1,.367.455,19.545,19.545,0,0,1,3.085,9.884c.143,3.33,1.334,6.443,1.477,9.735.23,5.312,2.2,10.475,1.062,15.932a38.275,38.275,0,0,0-.4,7.682c-.009,5.711-1.945,11.154-2.245,16.878-.112,2.145-1.985,4.87-3.017,7.326-3.7,8.8-10.262,15.509-16.021,22.855-5.416,6.909-11.5,13.682-12.074,23.155-.23,3.822-1.366,7.855.606,11.441,5.3,9.638,8.093,20.564,15.369,29.205,5.664,6.726,9.467,14.874,16.367,20.718,6.747,5.714,13.189,11.867,20.984,16.088,3.827,2.072,7.706,4.193,12.2,5.185A141.553,141.553,0,0,0,341.746,527.043ZM468.568,420.294c-3.143,10.738-9.381,19.844-12.522,30.266C460,447.774,470.2,423.792,468.568,420.294ZM344.908,148.557c10.811-4.89,19.805-12.218,28.388-20.113-8.954,6.727-17.9,13.463-27.456,19.329A8.112,8.112,0,0,0,344.908,148.557ZM241.691,204.444c5.237-5.647,10.7-11.069,16.253-16.408A52.432,52.432,0,0,0,241.691,204.444Zm-9.3,238.473c1.254-3.529,2.068-7.172,3.123-10.752A19.2,19.2,0,0,0,232.387,442.917Zm6.5-231.151c-.209-.785-.61-1.207-1.348-1.065a2.318,2.318,0,0,0-2.055,2.34c-.04.719.385.859.983.752C237.7,213.574,238.268,212.614,238.886,211.766Z"/><path d="M430,384.685c-.126-.775,0-1.464-.777-1.855-.137,1.194-1.1,2.333.482,3.379.918.608.055,1.6-.18,2.33q-3.175,9.914-6.219,19.865c-1.945,6.3-4.268,12.517-5.726,18.971-.732,3.24-2.3,6.152-3.493,9.21a11.574,11.574,0,0,0-1.008,4.269c0,3.1-.217,3.184-3.086,1.553a2.674,2.674,0,0,0-.989-.079c0,.345-.107.688.016.893a8.524,8.524,0,0,1-.708,9.606,17.676,17.676,0,0,0-3.321,6.419c-.922,3.818-3.539,6.822-6.579,9.334-.276.228-.905.122-.934.654-.171,3.147-2.7,4.656-4.615,6.531-1.824,1.79-4.072,3.1-5.786,5.062a37.858,37.858,0,0,1-10.254,8.391c-1.856,1.034-3.741,3-5.807,3.808-7.635,2.994-15.121,6.342-22.854,9.132-13.066,4.714-25.931,3.331-38.9.185a57.319,57.319,0,0,1-20.829-9.952,43.676,43.676,0,0,1-6.342-6.19,66.864,66.864,0,0,1-15.541-29.15,27.478,27.478,0,0,1,2.9-20.288c.929-1.671,1.644-3.86,4.779-3.482,1.366.165,2.72-2.375,3.778-3.986a190.426,190.426,0,0,0,18.479-36.224c5.16-13.388,9.664-26.916,11.4-41.288,1.262-10.433-.147-20.439-2.69-30.5-2.037-8.063-6.244-14.8-11.049-21.368-3.6-4.918-6.819-10.112-10.374-15.064-1.26-1.755.329-2.876.7-5.133-1.946,2.646-2.265,2.115-3.093-.062a49.208,49.208,0,0,0-3.547-6.315,29.893,29.893,0,0,1-4.079-14.506c-.019-1.923-1.024-3.528-.765-5.349a48.547,48.547,0,0,1,1.136-6.858c1.146-3.905,1.866-8.021,5.683-10.673,1.054-.732.429-3,1.627-4.29,5.127-5.5,9.955-11.373,16.366-15.454a313.4,313.4,0,0,1,47.971-24.96c11.655-4.854,22.782-10.986,31.966-20,13.516-13.271,27.734-25.762,42.361-37.782,13.867-11.4,28.725-21.173,45.764-27.291a81.488,81.488,0,0,1,22.068-4.616c10.821-.747,18.924,4.178,25.211,12.359,12.073,15.71,14.907,33.39,10.262,52.4a142.514,142.514,0,0,1-14.21,36.53c-3.045,5.387-5.948,10.839-10.971,14.938-2.4,1.955-3.679,5.257-5.521,7.911-6.3,9.072-14.223,16.852-20.491,25.979-2.791,4.065-5.152,8.351-7.783,12.488-5.743,9.03-9.664,19-13.982,28.713-3.788,8.526-5.158,17.844-6.523,27.077-1.471,9.95-3.025,19.889-4.72,29.8-.979,5.726-1.661,11.638-3.7,17-1.415,3.728-1.467,7.7-3.161,11.311C431.382,380.139,432.428,382.978,430,384.685ZM295.059,403.846c.906-.341,1.13-1.248,1.443-1.972,2.974-6.887,6.19-13.69,8.179-20.953,1.164-4.251,3.207-8.3,3.141-12.859-2.056,8.06-5.639,15.577-8.184,23.456-1.351,4.182-3.877,7.941-4.512,12.39-3.634,4.795-5.419,10.554-8.358,15.711C289.877,414.541,293.531,409.742,295.059,403.846Zm3.264-113.977c.055-.406-.036-.991.2-1.18.42-.342.636.179.915.486.788.867.419,2.174,1.5,3.04a14.158,14.158,0,0,1,4.362,6.147c.846,2.164,3.158,3.738,4.735,5.645.351.425.793,1.144.339,1.748-.844,1.12-.167,1.487.763,1.749a3.28,3.28,0,0,1,2.144,2.193c1.405,3.6,3.278,7.026,3.7,11,.27,2.561.684,5.622,1.632,7.492,2.642,5.206,2.738,10.7,2.487,15.911-.226,4.722-1.134,9.56-.917,14.29.187,4.088-1.869,7.419-2.441,11.224-.692,4.608-3.886,8.63-4.517,13.42-.387,2.94-3.493,5.175-3.466,7.506.061,5.385-4.709,8.283-5.552,13.141A11.068,11.068,0,0,1,301.955,409c-2.759,3.016-3.567,7.19-6.424,10.195-3.6,3.784-5.469,8.852-9.306,12.607-2.306,2.256-4.107,5.169-6.125,7.766-1.827,2.35-1.663,5.993-2.267,9.1-.875,4.5,1.7,8,2.869,11.951,2.783,9.437,8.582,17.239,15.37,23.534,13.258,12.3,29.136,16.335,46.793,9.9,1.791-.653,3.582-1.311,5.389-1.918,10.6-3.559,19.759-9.442,28.266-16.663,11.132-9.45,16.4-22.627,22.571-35.1,2.157-4.362,3-9.71,4.625-14.554a102.7,102.7,0,0,0,3.083-10.03c.774-3.432,1.828-6.767,2.855-10.113s2.468-6.565,3.281-9.948c.723-3.01,2.2-5.7,2.827-8.819.833-4.169,2.194-8.324,3.326-12.485a315.3,315.3,0,0,0,8.953-45.545c1.017-8.541,1.757-17.163,3.526-25.559,5.714-27.137,18.211-51.114,35.423-72.664,7.693-9.631,15.854-18.891,23.908-28.229,11.532-13.371,17.789-29.285,22.5-45.979a47.751,47.751,0,0,0-1.387-30.651c-2.172-5.71-5.409-10.476-12.238-11.6-6.357-1.049-12.562.457-18.573,1.569a46.362,46.362,0,0,0-11.057,4.1c-8.605,4.163-17.334,8.1-24.816,14.157-1.782,1.443-4,1.636-5.782,3.076-2.279,1.842-3.872,4.331-6.358,5.986-1.427.949-3.137,1.042-4.454,2.259-8.347,7.71-17.783,14.2-25.317,22.842-2.616,3-5.845,5.46-8.695,8.268a103.219,103.219,0,0,1-37.171,23.576,216.093,216.093,0,0,0-48.249,25.127c-5.738,3.955-11.887,7.684-16,13.7-2.387,3.488-5.454,7.045-5.827,11.04-.552,5.91-1.152,12.083.86,17.97.485,1.42-.381,3.4-.078,3.885,1.163,1.865,1.866,3.973,3.127,5.762C294.111,281.369,297.868,284.673,298.323,289.869ZM416.642,395.812c-3.3,6.6-5.352,13.669-7.3,20.721-1.99,7.212-4.676,14.174-7.007,21.254-2.2,6.693-5.387,13.064-8.139,19.577C405.975,438.368,410.367,416.766,416.642,395.812Zm4.864-258.366c13.829-10.832,28.331-20.448,44.557-27.272C455.433,111.581,425.948,131.066,421.506,137.446ZM298.615,220c-8.272,5.606-15.654,12.036-19.227,21.822A132.508,132.508,0,0,1,298.615,220Zm-26.69,218.63c-3.524,3.5-5.129,14.352-2.816,16.588C269.768,449.719,269.787,444.016,271.925,438.627ZM410.211,147.416l-.685-.73c-6.014,5.5-12.53,10.431-17.754,16.814Zm-39.682,34.478c6.865-4.028,12.43-9.548,17.641-15.473C382.313,171.6,376.553,176.9,370.529,181.894Z"/><path d="M447.437,233.843c1.135,1.92.749,3.127-.013,4.988-1.859,4.535-5.657,8.1-6.374,13.161-.255,1.806-1.656,3.171-2.516,4.691-2.187,3.868-2.607,8.369-4.574,12.139-1.866,3.575-2.667,7.491-4.57,10.987-1.01,1.855-.655,4.166-1.971,5.965-.887,1.214-3.083,8.758-3.338,10.211-.64,3.658-1.384,7.3-2.123,10.938-.126.625-.406,1.267-1.258,1.133-.878-.139-1.3.261-.965,1.04,1.261,2.92-.244,5.536-1.367,7.83-3.263,6.664-6.1,13.515-8.962,20.338-.568,1.352-3.2.986-2.264,3.679.474,1.361-1.058,3.72-2.117,5.479-1.033,1.717-1.727,3.634-2.661,5.415-6.886,13.127-13.215,26.515-19.21,40.075-3.324,7.521-7.3,14.754-10.8,22.2a42.426,42.426,0,0,0-2.058,6.006c-.547,1.848-1.348,4.5-3.607,5.662a1.361,1.361,0,0,0-.816.835c-2.762,8.7-10.179,13.244-16.8,18.338-4.736,3.647-10.511,5.8-15.887,8.321-3.325,1.559-6.384,4.039-10.257,4.587a97.458,97.458,0,0,1-11.68,1.331,17.3,17.3,0,0,1-10.511-3.013c-1.657-1.149-1.909-2.609-1.186-4.454a22.58,22.58,0,0,1,8.654-11.128c1.594-1.043,3.3-1.947,4.357-3.649.758-1.217,2.041.314,3.447-1.069,4.976-4.895,8.076-10.847,11.268-16.829,6.61-12.392,11.532-25.5,16.271-38.671a94.944,94.944,0,0,0,4.05-17.622c.589-3.773.986-7.549,1.237-11.354.117-1.764.827-3.215,2.994-2.139,1.291.641,1.689-.3,2.3-.964a.943.943,0,0,0-.072-1.411c-.755-.722-1.412.03-2,.318-2.424,1.18-3.217.477-3.093-2.175.342-7.306.527-14.614-1.371-21.8a47.621,47.621,0,0,0-4-10.257c-5.051-9.485-11.576-18.036-17.344-27.067-4.222-6.61-8.563-13.221-9.45-21.289-.206-1.879-1.7-4.167.9-5.691a.672.672,0,0,0,.259-.521c-.5-7.381-.276-7.566,4.74-12.739a36.76,36.76,0,0,1,11.271-7.552c14.883-6.843,27.425-16.8,39.7-27.457,14.945-12.971,28.56-27.445,44.088-39.683,17.01-13.4,36.467-22.589,57.12-28.934,10.9-3.35,18.978,4.786,16.6,16.1a110.987,110.987,0,0,1-12.347,31.927c-6.531,11.547-14.017,22.484-21.259,33.568-1.987,3.041-3.673,6.339-6.095,9.145C450.526,234.242,449.593,235.52,447.437,233.843ZM333.911,412.067c.9-.064,1.161-.8,1.492-1.444,4.19-8.222,7.294-16.919,11.1-25.307,1.826-4.026,1.2-8.856,4.266-12.437a.882.882,0,0,0-.372-1.53c-.96-.412-1.475.228-1.582,1.012-.418,3.058-1.878,5.739-2.893,8.586-2.613,7.333-4.852,14.771-8.35,21.8-1.454,2.923-3.065,6-3.585,9.385a42.013,42.013,0,0,0-5.874,11.261C329.922,419.558,333.393,416.572,333.911,412.067Zm82.5-220.673c-3.748,1.676-5.6,5.3-8.288,8.065-3.53,2.052-5.484,5.749-8.627,8.228-5.419,4.275-10.981,8.412-16.049,13.078a143.189,143.189,0,0,1-34.916,23.756c-4.769,2.305-10.331,2.8-14.405,6.786-2.493,2.439-5.522,4.411-5.747,8.229a29.893,29.893,0,0,0,3.278,16.213c5.041,9.4,11.83,17.622,17.765,26.42C355.586,311.312,361.1,320.615,362.5,332c1.342,10.892.535,21.686-.105,32.5-.129,2.19-1.613,4.279-1.693,6.816-.112,3.543-.148,7.481-2.4,10.384-4.059,5.239-5.4,11.63-8.061,17.446-.871,1.907-.338,4.717-2.012,6.176-2.235,1.949-2.835,4.513-3.9,6.962a8.625,8.625,0,0,1-1.73,2.646c-2.421,2.407-3.946,5.585-5.631,8.331a64.856,64.856,0,0,1-11.644,14.4c-1.341,1.22-3.458,1.072-4.263,2.975a12.787,12.787,0,0,1-3.836,4.614,10.2,10.2,0,0,0-3.022,5.132,3.763,3.763,0,0,0,2.677-.421c4.813-1.764,8.929-4.873,13.577-6.987a52.543,52.543,0,0,0,20.48-16.284c4.076-5.382,6.842-11.473,9.758-17.479,5.781-11.907,11.654-23.775,17.075-35.845,3.037-6.761,6.195-13.454,9.556-20.047,5.583-10.952,10.557-22.184,15.407-33.46a153.764,153.764,0,0,0,9.2-28c1.836-8.427,5.035-16.415,8.162-24.417,5.955-15.237,12.012-30.413,21.829-43.738,8.82-11.971,17.754-23.863,25.724-36.441,5.949-9.389,11.112-19.106,13.647-30.023.272-1.171,1.139-2.706.144-3.568-.844-.73-2.22.23-3.286.651A243.093,243.093,0,0,0,445.8,170.04c-1.88,1.088-3.551,3.549-6.428,2.346-.406-.17-1.253.4-1.007.888.871,1.724-.821,1.7-1.469,2.132q-6.141,4.059-12.128,8.334C421.648,185.974,419.477,189.157,416.408,191.394ZM355.851,425.511c2.236-3.645,4.949-6.86,6.774-10.844,4.128-9.017,8.921-17.734,12.851-26.862a432.708,432.708,0,0,1,19.243-40,1.936,1.936,0,0,0-.327-2.8C380.021,371.335,369.8,399.325,355.851,425.511Zm59.718-248.166A201.458,201.458,0,0,1,441.6,160.617c9.28-4.861,18.668-9.484,28.186-13.8C450.447,154.72,431.335,163.045,415.569,177.345Zm-25.525,24.382-.583-.772-26.524,22.991.564.658Zm-56.225,40.1c-6.635,1.245-13.441,7.494-12.748,11.727C324.284,248.312,328.941,244.951,333.819,241.832Zm60.935,102.044.957.5c1.023-2.713,3.928-4.643,2.592-8.348Z"/><path d="M416.408,191.394a20.16,20.16,0,0,1-8.288,8.065C410.809,196.7,412.66,193.07,416.408,191.394Z"/></svg>