<?xml version="1.0" encoding="UTF-8" standalone="no"?> <!-- Created with Vectornator for iOS (http://vectornator.io/) --><!DOCTYPE svg PUBLIC "-//W3C//DTD SVG 1.1//EN" "http://www.w3.org/Graphics/SVG/1.1/DTD/svg11.dtd">
<svg height="100%" style="fill-rule:nonzero;clip-rule:evenodd;stroke-linecap:round;stroke-linejoin:round;" xmlns:xlink="http://www.w3.org/1999/xlink" xmlns="http://www.w3.org/2000/svg" xml:space="preserve" width="100%" xmlns:vectornator="http://vectornator.io" version="1.1" viewBox="0 0 600 600">
<metadata>
<vectornator:setting key="DimensionsVisible" value="1"/>
<vectornator:setting key="GuidesVisible" value="1"/>
<vectornator:setting key="PencilOnly" value="0"/>
<vectornator:setting key="RulersVisible" value="1"/>
<vectornator:setting key="OutlineMode" value="0"/>
<vectornator:setting key="DisplayWhiteBackground" value="0"/>
<vectornator:setting key="doHistoryDisabled" value="0"/>
<vectornator:setting key="DynamicGuides" value="0"/>
<vectornator:setting key="SnapToPoints" value="0"/>
<vectornator:setting key="CMYKEnabledKey" value="0"/>
<vectornator:setting key="SnapToGrid" value="0"/>
<vectornator:setting key="TimeLapseWatermarkDisabled" value="0"/>
<vectornator:setting key="SnapToEdges" value="0"/>
<vectornator:setting key="IsolateActiveLayer" value="0"/>
<vectornator:setting key="Units" value="Points"/>
<vectornator:setting key="SnapToGuides" value="1"/>
</metadata>
<defs/>
<g id="Untitled" vectornator:layerName="Untitled">
<g opacity="1">
<path d="M409.889+241.646C410.156+241.646+410.423+241.379+410.423+241.379L410.423+286.942L410.423+342.631L361.927+314.92L290.25+273.621L290.25+273.621C291.849+273.888+296.111+274.419+301.707+274.953C302.241+274.953+303.04+274.953+303.574+275.22C303.841+275.22+304.108+275.22+304.372+275.22C308.901+275.487+313.963+276.019+319.026+276.019C319.293+276.019+319.293+276.019+319.56+276.019C320.625+276.019+321.958+276.019+323.023+276.019L323.29+276.019C322.756+276.019+322.492+276.019+321.958+276.019C325.154+278.152+328.62+280.547+332.617+283.746C354.998+301.067+354.998+290.675+368.322+303.198C381.911+315.454+396.031+327.179+401.36+317.852C406.692+308.525+402.426+278.417+403.494+264.561C403.761+258.7+403.227+253.104+402.428+246.441C403.229+245.907+403.761+245.643+403.761+245.643C403.761+245.643+403.494+245.109+403.494+244.044C403.494+244.044+405.09+243.512+407.491+242.447L407.491+242.447C407.761+242.447+408.025+242.18+408.292+242.18C408.559+242.18+408.559+241.913+408.823+241.913C409.357+241.913+409.624+241.913+409.889+241.646ZM327.023+276.019C327.557+276.019+328.355+276.019+328.89+276.019C328.89+276.019+328.89+276.019+329.157+276.019C327.29+276.019+325.693+276.019+323.827+276.019C324.094+276.019+324.361+276.019+324.625+276.019C325.424+276.019+326.225+276.019+327.023+276.019ZM440+87.3698C440+87.3698+410.423+108.953+410.423+208.605L410.423+211.27L410.423+211.27C410.423+211.27+410.423+211.27+410.423+211.537C410.423+213.134+410.153+215+409.889+216.867C409.09+221.395+397.9+229.123+397.9+229.123C397.9+229.123+398.965+228.324+400.565+227.256C400.03+221.66+399.763+215.265+399.763+207.807C399.763+177.431+397.9+184.625+399.763+161.977C401.63+139.595+376.581+155.849+366.456+137.996C356.331+120.143+355.53+108.686+360.595+95.8956C365.925+83.1055+370.987+62.0567+346.473+67.3863C321.961+72.9829+339.544+83.9066+313.432+71.6505C287.588+59.3919+280.659+89.2362+279.593+104.157C278.261+119.078+284.389+124.939+277.195+143.058C269.999+161.178+271.599+182.761+271.334+193.685C271.067+204.608+279.062+212.603+277.195+222.992C276.661+227.256+277.195+233.916+279.062+240.845C291.852+241.91+308.639+243.243+321.694+244.311L321.694+244.311C303.042+242.978+276.13+240.845+265.471+239.515C264.405+239.515+263.34+239.248+262.542+239.248L262.542+181.693C262.542+181.693+265.206+47.4002+314.233+19.1554C313.966+19.158+376.05+82.3071+440+87.3698ZM409.357+128.936C409.357+128.936+399.499+116.146+400.03+115.612C399.499+114.015+403.229+95.8956+403.229+95.8956L390.175+112.149L375.518+104.421L386.976+120.942C386.976+120.942+383.246+139.061+383.513+137.993C384.044+136.928+395.502+122.538+395.502+122.538L409.357+128.936Z" opacity="1" fill="#c5a991"/>
<path d="M263.34+534.479C264.405+542.74+243.891+556.329+238.828+557.394C233.498+558.46+221.774+560.323+218.577+553.664C215.381+547.002+218.577+537.942+218.577+537.942C218.577+537.942+222.041+545.138+229.237+545.403C236.697+545.67+244.692+532.346+244.692+532.346L245.226+530.749C245.223+530.482+262.542+526.22+263.34+534.479ZM331.552+553.13C329.418+553.397+327.822+553.928+326.489+554.195C326.222+557.392+324.623+563.255+319.56+565.653L319.293+565.653C318.759+565.92+318.492+565.92+317.961+566.184L317.694+566.184C317.16+566.184+316.628+566.451+315.827+566.451C315.026+566.451+314.495+566.451+313.696+566.451C313.429+566.451+313.162+566.451+312.898+566.451C312.631+566.451+312.097+566.451+311.833+566.184C311.566+566.184+311.299+566.184+311.034+565.917C310.767+565.917+310.5+565.65+310.233+565.65C309.966+565.65+309.702+565.383+309.702+565.383C309.435+565.116+309.168+565.116+308.901+564.849C308.901+564.849+308.634+564.582+308.369+564.582C307.568+564.048+306.77+563.517+306.236+562.716L305.969+562.449C305.702+562.182+305.702+561.918+305.435+561.918C305.168+561.65+305.168+561.65+304.901+561.383C304.901+561.383+304.901+561.383+304.901+561.116C304.901+560.849+304.634+560.849+304.634+560.582C304.1+562.449+301.969+570.174+304.901+576.037C307.833+582.699+319.824+580.833+325.151+579.768C330.214+578.702+350.996+565.114+349.663+556.855C348.606+549.135+331.552+553.13+331.552+553.13ZM305.173+218.464L301.176+216.867L297.179+235.785L289.451+234.188L293.449+213.671L284.656+209.94L292.116+176.102L276.928+162.246L282.258+156.385L294.514+167.576L304.639+135.334L281.457+120.413L285.721+113.751L307.037+127.606L310.233+116.95L311.566+115.083C311.566+115.083+312.898+114.018+314.764+112.418L289.716+88.9718L295.045+83.3752L321.157+107.623C332.612+98.563+350.734+84.1736+353.663+80.9774L359.26+86.307C357.661+88.1708+351.268+93.2334+344.069+99.097L344.069+120.947L359.791+149.192L352.862+152.922L336.612+123.879L336.078+122.012L336.078+105.492C327.816+112.154+319.824+118.546+317.16+120.68L313.162+133.737L320.356+148.925L336.078+177.701L351.53+157.451L389.102+174.769L385.903+181.963L354.195+167.309L340.339+185.428L356.859+217.668L390.701+200.082L394.431+207.009L321.688+244.578L321.688+244.578C325.952+244.845+329.683+245.112+332.879+245.376C337.14+245.643+340.072+245.91+340.871+245.91L340.871+245.91L398.159+228.858L398.426+229.126C398.426+229.126+399.491+228.327+401.091+227.259C400.559+221.662+400.292+215.267+400.292+207.81C400.292+177.434+398.426+184.627+400.292+161.979C402.156+139.598+377.11+155.851+366.985+137.998C356.857+120.146+356.058+108.688+361.121+95.8982C366.451+83.1082+371.513+62.0593+346.999+67.3889C322.487+72.9856+340.07+83.9092+313.958+71.6532C288.114+59.3972+281.185+89.2388+280.119+104.16C278.787+119.08+284.915+124.941+277.721+143.061C270.525+161.181+272.125+182.764+271.858+193.687C271.591+204.611+279.585+212.605+277.721+222.995C277.187+227.259+277.721+233.918+279.585+240.847C292.375+241.913+309.163+243.245+322.217+244.313L305.173+218.464ZM383.513+137.729C384.044+136.663+395.502+122.274+395.502+122.274L409.093+128.936C409.093+128.936+399.235+116.146+399.766+115.612C399.235+114.015+402.965+95.8955+402.965+95.8955L389.911+112.149L375.254+104.421L386.712+120.942C386.973+120.677+383.243+138.797+383.513+137.729ZM349.938+220.864L333.415+188.358L328.62+188.892L328.62+208.077L313.432+216.602L324.358+234.188L349.938+220.864ZM404.028+264.561C404.295+258.7+403.758+253.104+402.962+246.442L402.962+246.442C401.363+247.24+398.698+248.572+395.502+250.172C395.769+250.172+395.769+249.905+396.033+249.905L400.03+250.172L396.567+312.255L388.84+311.721L392.303+252.036C385.641+255.232+377.382+259.496+369.121+263.226C369.39+263.226+369.655+262.959+369.922+262.959L373.919+262.959L373.919+289.338L383.777+298.664L378.448+304.525L365.925+292.801L365.925+264.823C360.061+267.488+354.467+270.153+349.671+271.752C349.671+271.752+349.671+271.752+349.404+271.752C348.87+272.019+348.339+272.019+347.805+272.283C347.805+272.283+347.538+272.283+347.538+272.55C347.004+272.817+346.739+272.817+346.205+273.084C345.938+273.084+345.938+273.351+345.671+273.351C345.404+273.351+345.137+273.618+344.873+273.618C344.339+273.885+343.808+273.885+343.541+274.15C342.742+274.417+341.944+274.684+341.143+274.684C340.609+274.684+340.077+274.951+339.81+274.951C339.543+274.951+339.009+274.951+338.745+275.218C336.879+275.485+334.748+275.752+332.35+275.752C331.816+275.752+331.552+275.752+331.018+275.752C330.751+275.752+330.219+275.752+329.952+275.752L329.685+275.752C327.554+275.752+325.157+275.752+323.023+275.752C326.222+277.883+329.685+280.28+333.682+283.479C356.064+300.798+356.064+290.408+369.388+302.929C382.976+315.187+397.096+326.909+402.426+317.582C407.224+308.792+402.962+278.684+404.028+264.561ZM293.449+205.409L299.577+208.074L307.304+211.006L320.358+203.545L320.358+189.69L316.361+189.957L313.963+189.423L298.776+180.63L293.449+205.409ZM329.154+180.897L313.435+152.385L313.435+152.118L309.704+144.391L300.912+172.903L316.898+182.23L329.154+180.897Z" opacity="1" fill="#c5a991"/>
<path d="M399.763+250.174L396.3+312.258L388.573+311.724L392.036+252.038L392.036+252.038C393.368+251.504+394.434+250.973+395.502+250.439C395.769+250.439+395.769+250.172+396.033+250.172L399.763+250.172L399.763+250.174ZM373.388+262.964L369.39+262.964C369.121+262.964+368.856+263.231+368.589+263.231C367.524+263.765+366.456+264.297+365.391+264.564L365.391+264.564L365.391+292.539L377.914+304.264L383.243+298.403L373.385+289.078L373.385+262.964L373.388+262.964ZM394.169+206.742L321.427+244.311L321.427+244.311L321.427+244.311L321.159+244.311L321.159+244.311L321.159+244.311L305.173+218.199L301.176+216.6L297.179+235.518L289.451+233.918L293.449+213.401L284.656+209.938L292.116+176.099L276.928+162.244L282.258+156.383L294.514+167.573L304.639+135.331L281.457+120.41L285.721+113.748L307.037+127.604L310.233+116.947L311.566+115.081C311.566+115.081+312.898+114.015+314.764+112.416L289.716+88.9692L295.045+83.3726L321.157+107.62C332.612+98.5604+350.734+84.1709+353.663+80.9748L359.26+86.3044C357.661+88.1682+351.268+93.2308+344.069+99.0944L344.069+120.944L359.791+149.189L352.862+152.919L336.612+123.876L336.078+122.01L336.078+105.489C327.816+112.151+319.824+118.544+317.16+120.677L313.162+133.734L320.356+148.922L336.078+177.698L351.53+157.448L389.102+174.767L385.903+181.96L354.195+167.306L340.339+185.426L356.859+217.665L390.701+200.08L394.169+206.742ZM300.912+172.903L316.898+182.23L328.89+180.897L313.168+152.385L313.168+152.118L309.438+144.391L300.912+172.903ZM307.571+210.739L320.628+203.278L320.628+189.423L316.631+189.69L314.233+189.156L299.045+180.363L293.449+204.875L299.577+207.54L307.571+210.739ZM349.938+220.864L333.415+188.358L328.62+188.892L328.62+208.077L313.432+216.602L324.358+234.188L349.938+220.864Z" opacity="1" fill="#f4b922"/>
<path d="M262.806+166.772C262.272+176.099+262.008+181.696+262.008+181.696L255.88+178.23C256.147+178.23+260.408+168.372+262.806+166.772ZM230.032+221.395L230.032+221.395C232.697+217.932+235.893+211.804+235.095+202.477C233.763+187.824+227.101+177.164+227.101+177.164C227.101+177.164+215.112+188.622+216.975+193.151C218.842+197.679+221.771+204.074+221.771+204.074C221.771+204.074+221.504+203.273+216.174+200.878C210.845+198.48+207.913+204.341+212.177+209.671C216.441+215+222.302+214.466+222.302+214.466L216.706+215.532L227.098+224.592C227.103+224.327+228.433+223.529+230.032+221.395ZM197.793+228.856L197.793+237.117L197.793+237.117L197.793+242.711C197.793+242.711+202.324+245.376+213.248+245.907C223.904+246.441+235.098+235.515+235.098+235.515L227.103+224.592C227.103+224.327+214.58+231.521+197.793+228.856ZM422.679+208.605C419.483+206.475+410.69+208.605+410.69+208.605C410.69+208.605+410.69+209.671+410.69+211.27L410.69+211.27C410.69+211.27+410.69+211.27+410.69+211.537C410.69+212.87+410.423+214.733+410.156+216.867C409.357+221.395+398.167+229.123+398.167+229.123C398.167+229.123+398.167+229.123+398.434+229.39C398.701+229.657+398.968+229.924+399.235+230.455C399.235+230.722+399.502+230.722+399.502+230.989C399.769+231.256+400.033+231.788+400.303+232.322C401.635+234.987+402.968+238.717+403.766+241.646C404.036+242.978+404.3+244.044+404.567+244.845C404.567+244.845+406.164+244.311+408.564+243.245L408.564+243.245C408.831+243.245+409.098+242.978+409.365+242.978C409.632+242.978+409.632+242.711+409.897+242.711C410.161+242.711+410.164+242.444+410.431+242.444C414.692+240.311+420.022+237.115+424.283+232.052C430.94+221.929+425.608+210.739+422.679+208.605Z" opacity="1" fill="#ffd2bb"/>
<path d="M192.196+249.907C190.063+244.578+197.793+237.649+198.057+237.117L198.057+237.117L198.057+242.711C198.057+242.711+202.586+245.376+213.512+245.907C224.171+246.441+235.362+235.515+235.362+235.515L244.689+237.115C244.689+237.115+228.169+254.967+218.31+256.033C208.185+257.101+194.33+255.237+192.196+249.907Z" opacity="1" fill="#ff5100"/>
<path d="M218.286+535.191C218.286+535.191+221.75+542.384+228.946+542.651C236.406+542.918+244.4+529.597+244.4+529.597L276.64+433.674L303.021+555.444C303.021+555.444+303.288+557.307+304.618+559.441C304.618+559.441+304.618+559.441+304.618+559.708C304.618+559.975+304.885+559.975+305.152+560.242C305.419+560.509+305.419+560.776+305.686+560.776L305.953+561.043C306.487+561.577+307.285+562.375+308.086+562.909C308.086+562.909+308.353+563.176+308.618+563.176C308.885+563.443+309.152+563.443+309.419+563.71C309.686+563.71+309.95+563.977+309.95+563.977C310.217+563.977+310.484+564.244+310.751+564.244C311.018+564.244+311.285+564.511+311.549+564.511C311.814+564.511+312.348+564.511+312.615+564.778C312.882+564.778+313.149+564.778+313.413+564.778C313.947+564.778+314.746+564.778+315.544+564.778C316.078+564.778+316.876+564.511+317.41+564.511L317.677+564.511C318.209+564.511+318.476+564.244+319.01+563.977L319.277+563.977C326.47+560.781+326.206+550.389+326.206+550.389L316.348+416.096L311.018+342.288L311.018+341.222L311.018+340.955C310.751+344.686+309.953+347.885+308.353+350.015C297.694+363.339+269.185+372.931+254.795+353.481L250+377.195L236.676+444.341L218.286+535.191Z" opacity="1" fill="#ff5100"/>
<path d="M190.333+202.477C189.267+202.477+188.202+202.477+187.401+202.477C187.134+202.477+186.867+202.477+186.602+202.477C185.804+202.477+185.27+202.477+184.472+202.21C184.205+202.21+183.938+202.21+183.671+202.21C182.872+202.21+182.338+201.943+181.54+201.943C181.273+201.943+181.006+201.943+181.006+201.943C180.207+201.676+179.409+201.676+178.608+201.412C178.608+201.412+178.608+201.412+178.341+201.412C167.682+198.213+161.287+190.486+160.221+181.96C159.156+170.502+161.287+153.982+181.27+145.456C201.254+137.195+203.12+149.721+207.115+147.587C211.112+145.456+213.243+136.93+219.638+137.462C226.033+137.993+243.351+149.985+244.417+162.508C245.482+174.764+227.098+177.963+227.098+177.963C218.842+182.494+207.918+202.477+190.333+202.477ZM403.761+244.311C403.494+243.512+403.229+242.444+402.962+241.115C402.161+238.183+401.096+234.453+399.496+231.788C399.229+231.254+398.965+230.989+398.695+230.455C398.695+230.188+398.428+230.188+398.428+229.921C398.161+229.654+397.897+229.123+397.63+228.856L397.36+228.589L340.075+245.643L340.075+245.643C339.541+245.643+336.612+245.376+332.083+245.109C328.887+244.842+325.154+244.575+320.892+244.311L320.625+244.311L320.625+244.311C301.974+242.978+275.062+240.845+264.403+239.515C263.07+239.248+261.738+239.248+260.937+238.981C261.204+238.981+261.204+238.981+261.471+238.981L261.471+181.426L255.343+177.963C255.343+177.963+248.948+207.006+243.885+212.603C238.823+217.932+229.496+221.128+229.231+221.128L229.231+221.128C227.632+223.262+226.3+224.06+226.3+224.06L234.294+234.984L243.618+236.583C243.618+236.583+227.098+254.433+217.24+255.501C207.382+256.569+193.526+254.97+191.395+249.373C191.395+249.373+195.657+267.757+215.109+297.866C228.163+318.383+244.951+341.566+254.544+354.887C268.934+374.604+297.446+364.745+308.102+351.421C309.702+349.291+310.5+346.092+310.767+342.361L310.767+342.628C311.568+319.98+289.184+273.084+289.184+273.084C289.184+273.084+289.451+273.084+290.25+273.084L290.25+273.084C291.849+273.351+296.111+273.883+301.707+274.417C302.241+274.417+303.04+274.417+303.574+274.684C303.841+274.684+304.108+274.684+304.372+274.684C308.901+274.951+313.963+275.485+319.026+275.485C319.293+275.485+319.293+275.485+319.56+275.485C320.625+275.485+321.958+275.485+323.026+275.485C323.293+275.485+323.824+275.485+324.091+275.485C324.89+275.485+325.691+275.485+326.489+275.485C327.023+275.485+327.822+275.485+328.356+275.485C328.623+275.485+328.623+275.485+328.89+275.485C329.157+275.485+329.688+275.485+329.955+275.485C330.489+275.485+330.756+275.485+331.287+275.485C333.418+275.218+335.549+275.218+337.682+274.951C337.949+274.951+338.481+274.951+338.748+274.684C339.282+274.684+339.813+274.417+340.08+274.417C340.879+274.15+341.68+274.15+342.478+273.883C343.012+273.616+343.276+273.616+343.81+273.349C344.077+273.349+344.344+273.082+344.609+273.082C344.876+273.082+344.876+272.815+345.143+272.815C345.41+272.548+345.941+272.548+346.475+272.281C346.475+272.281+346.742+272.281+346.742+272.014C347.276+271.747+347.808+271.747+348.339+271.48C348.339+271.48+348.339+271.48+348.606+271.48C353.135+269.613+358.731+267.215+364.859+264.551L364.859+264.551C365.925+264.019+366.993+263.485+368.058+263.218C376.317+259.488+384.576+255.226+391.24+252.028L391.24+252.028C392.573+251.494+393.638+250.962+394.703+250.428C398.169+248.831+400.831+247.499+402.164+246.698L402.164+246.698C402.965+246.167+403.496+245.9+403.496+245.9C403.496+245.9+404.028+245.112+403.761+244.311Z" opacity="1" fill="#f8c69a"/>
<path d="M222.308+214.202C222.308+214.202+216.711+214.733+212.182+209.406C207.918+204.077+210.85+198.216+216.18+200.614C221.509+203.011+221.776+203.81+221.776+203.81C221.776+203.81+218.844+197.415+216.981+192.886C215.114+188.358+227.106+176.9+227.106+176.9C218.844+182.23+207.921+201.946+190.602+201.946C189.537+201.946+188.471+201.946+187.673+201.946C187.406+201.946+187.139+201.946+186.872+201.946C186.074+201.946+185.54+201.946+184.741+201.679C184.474+201.679+184.207+201.679+183.943+201.679C183.144+201.679+182.61+201.412+181.809+201.412C181.542+201.412+181.278+201.412+181.278+201.412C180.477+201.145+179.679+201.145+178.88+200.878C178.88+200.878+178.88+200.878+178.613+200.878C170.087+198.213+164.226+192.884+161.826+186.489C164.758+196.881+172.75+220.861+189.27+226.722C210.319+234.183+227.373+224.592+227.373+224.592L216.981+215.532L222.308+214.202Z" opacity="1" fill="#003330"/>
</g>
</g>
</svg>
