<svg id="visual" viewBox="0 0 900 600" width="900" height="600" xmlns="http://www.w3.org/2000/svg" xmlns:xlink="http://www.w3.org/1999/xlink" version="1.1"><g><g transform="translate(492 108)"><path d="M26.1 15.4C17.5 29.9 -17 29.8 -25.6 15.3C-34.3 0.8 -17.2 -28.2 0.1 -28.2C17.3 -28.1 34.7 1 26.1 15.4Z" fill="#d9f7f5"></path></g><g transform="translate(804 478)"><path d="M30 17C21.1 32.8 -16.3 31.9 -26 15.6C-35.8 -0.6 -17.9 -32.2 0.8 -31.8C19.5 -31.3 38.9 1.2 30 17Z" fill="#d9f7f5"></path></g><g transform="translate(123 451)"><path d="M27.5 16C19 30.4 -15.7 29.8 -24.7 15.1C-33.7 0.3 -16.8 -28.5 0.6 -28.1C17.9 -27.8 35.9 1.6 27.5 16Z" fill="#d9f7f5"></path></g></g></svg>